<svg width="14" height="14" viewBox="0 0 14 14" fill="none" xmlns="http://www.w3.org/2000/svg">
<g clip-path="url(#clip0)">
<path d="M3.85547 8.01855C3.67451 8.01855 3.52734 7.87801 3.52734 7.70519V5.75586H3.01536C2.83779 5.75586 2.69336 5.6117 2.69336 5.43457C2.69336 5.25744 2.83784 5.11328 3.01536 5.11328H4.69558C4.87315 5.11328 5.01758 5.25744 5.01758 5.43457C5.01758 5.6117 4.87309 5.75586 4.69558 5.75586H4.18359V7.70519C4.18359 7.87801 4.03643 8.01855 3.85547 8.01855Z" fill="#9CA5B0"/>
<path fill-rule="evenodd" clip-rule="evenodd" d="M6.73269 8.01429C6.59586 8.01429 6.49119 7.95873 6.45963 7.86937L6.29716 7.44401L5.29659 7.44395L5.13401 7.86959C5.10256 7.95878 4.99795 8.01429 4.86112 8.01429C4.78914 8.01436 4.718 7.99892 4.65254 7.96901C4.56209 7.92728 4.47513 7.81255 4.57477 7.50307L5.35965 5.43719C5.41494 5.28008 5.58288 5.1182 5.7966 5.11334C6.01092 5.11815 6.17887 5.28008 6.23427 5.43752L7.01881 7.50247C7.11867 7.81266 7.03172 7.92745 6.94127 7.96906C6.87579 7.99892 6.80465 8.01434 6.73269 8.01429ZM6.12462 6.86279L5.79688 5.93173L5.46913 6.86279H6.12462Z" fill="#9CA5B0"/>
<path d="M7.54687 7.9707C7.37346 7.9707 7.23242 7.83573 7.23242 7.66992V5.44141C7.23242 5.26045 7.3827 5.11328 7.56738 5.11328C7.75206 5.11328 7.90234 5.26045 7.90234 5.44141V7.36914H8.59961C8.77302 7.36914 8.91406 7.50411 8.91406 7.66992C8.91406 7.83573 8.77302 7.9707 8.59961 7.9707H7.54687Z" fill="#9CA5B0"/>
<path d="M9.36983 8.01429C9.18887 8.01429 9.0417 7.86712 9.0417 7.68616V5.44141C9.0417 5.26045 9.18887 5.11328 9.36983 5.11328C9.55079 5.11328 9.69795 5.26045 9.69795 5.44141V6.14666L10.6134 5.23119C10.6605 5.1841 10.7252 5.15818 10.7954 5.15818C10.8773 5.15818 10.9596 5.19351 11.0212 5.25509C11.0787 5.31251 11.113 5.38639 11.1177 5.46312C11.1225 5.5405 11.0967 5.61143 11.0453 5.66289L10.2975 6.41052L11.1052 7.48054C11.1313 7.51487 11.1503 7.55403 11.1611 7.59576C11.1719 7.63749 11.1743 7.68095 11.1682 7.72362C11.1624 7.76632 11.1481 7.80744 11.1263 7.84458C11.1044 7.88173 11.0754 7.91417 11.0409 7.94002C10.9842 7.98315 10.9148 8.00642 10.8435 8.00625C10.7927 8.00649 10.7425 7.99481 10.697 7.97216C10.6515 7.94951 10.6119 7.91652 10.5814 7.87582L9.81192 6.85623L9.69806 6.97009V7.686C9.69796 7.77303 9.66335 7.85646 9.60182 7.918C9.54028 7.97955 9.45685 8.01417 9.36983 8.01429Z" fill="#9CA5B0"/>
<path fill-rule="evenodd" clip-rule="evenodd" d="M12.9062 14C13.5103 14 14 13.5103 14 12.9062V1.09375C14 0.489672 13.5103 0 12.9062 0H1.09375C0.489672 0 0 0.489672 0 1.09375V12.9062C0 13.5103 0.489672 14 1.09375 14H12.9062ZM7 1.96875C3.85886 1.96875 1.3125 3.97649 1.3125 6.45312C1.3125 8.05432 2.37705 9.4593 3.97841 10.2526C3.89129 10.5531 3.41857 12.1855 3.39976 12.3138C3.39976 12.3138 3.38844 12.4101 3.45084 12.4469C3.51323 12.4836 3.58662 12.4551 3.58662 12.4551C3.76556 12.4301 5.66163 11.0982 5.98981 10.867C6.31766 10.9134 6.65525 10.9375 7 10.9375C10.1411 10.9375 12.6875 8.92981 12.6875 6.45312C12.6875 3.97649 10.1411 1.96875 7 1.96875Z" fill="#9CA5B0"/>
</g>
<defs>
<clipPath id="clip0">
<path d="M0 0H14V14H0V0Z" fill="white"/>
</clipPath>
</defs>
</svg>
