<svg width="14" height="14" viewBox="0 0 14 14" fill="none" xmlns="http://www.w3.org/2000/svg">
<path d="M0 0V14H14V0H0ZM11.6305 3.31683L10.8797 4.03667C10.8479 4.0609 10.8233 4.09339 10.8086 4.13062C10.7939 4.16784 10.7896 4.20837 10.7963 4.24783V9.53692C10.7898 9.57629 10.7941 9.6167 10.8088 9.65381C10.8235 9.69092 10.848 9.72331 10.8797 9.7475L11.613 10.4673V10.6254H7.92517V10.4679L8.68467 9.73C8.75933 9.65533 8.75933 9.63375 8.75933 9.52V5.24417L6.64767 10.6079H6.36183L3.9025 5.24417V8.83925C3.89238 8.9138 3.89936 8.98968 3.92291 9.06113C3.94646 9.13258 3.98596 9.19774 4.03842 9.25167L5.02658 10.4498V10.6079H2.22542V10.4504L3.21417 9.25167C3.2662 9.1977 3.30482 9.13225 3.32691 9.06061C3.349 8.98898 3.35394 8.91315 3.34133 8.83925V4.68242C3.34716 4.62547 3.33947 4.56796 3.31889 4.51455C3.29832 4.46113 3.26544 4.41332 3.22292 4.375L2.34442 3.31683V3.15933H5.07092L7.1785 7.78108L9.03117 3.15875H11.6305V3.31683Z" fill="#9CA5B0"/>
</svg>
