<svg width="64" height="64" viewBox="0 0 64 64" fill="none" xmlns="http://www.w3.org/2000/svg">
<path d="M64 32C64 49.6731 49.6731 64 32 64C14.3269 64 0 49.6731 0 32C0 14.3269 14.3269 0 32 0C49.6731 0 64 14.3269 64 32Z" fill="#003DC6"/>
<path d="M44.0002 21.272H20.0002C18.5274 21.272 17.3335 22.4659 17.3335 23.9386V39.9386C17.3335 41.4114 18.5274 42.6053 20.0002 42.6053H44.0002C45.4729 42.6053 46.6668 41.4114 46.6668 39.9386V23.9386C46.6668 22.4659 45.4729 21.272 44.0002 21.272Z" stroke="white" stroke-width="4" stroke-linecap="round"/>
<path d="M45.3332 25.3334L32.5143 33.0247C32.1977 33.2147 31.802 33.2147 31.4853 33.0247L18.6665 25.3334" stroke="white" stroke-width="4" stroke-linecap="round"/>
</svg>
