<svg width="14" height="14" viewBox="0 0 14 14" fill="none" xmlns="http://www.w3.org/2000/svg">
<g clip-path="url(#clip0)">
<path d="M13.9732 2.66526C13.4569 2.89218 12.9057 3.04676 12.3252 3.11735C12.9167 2.76093 13.3717 2.19918 13.587 1.52893C13.0322 1.85268 12.4174 2.08835 11.7629 2.2196C11.2403 1.66018 10.4953 1.31018 9.66817 1.31018C8.08325 1.31018 6.79817 2.59526 6.79817 4.17843C6.79817 4.40593 6.82442 4.62468 6.87225 4.8341C4.48642 4.72151 2.37183 3.57585 0.956667 1.84393C0.707583 2.2651 0.568167 2.75451 0.568167 3.28768C0.568167 4.28518 1.07567 5.16193 1.8445 5.67701C1.37375 5.66185 0.931 5.53235 0.544833 5.31768V5.35326C0.544833 6.74451 1.53242 7.90476 2.84667 8.16901C2.60575 8.23376 2.35142 8.26876 2.09067 8.26876C1.9075 8.26876 1.73192 8.25126 1.55633 8.2186C1.92442 9.35785 2.98258 10.1885 4.242 10.2118C3.262 10.9813 2.02008 11.4398 0.6825 11.4398C0.455 11.4398 0.228083 11.4263 0 11.4007C1.27692 12.2138 2.78133 12.6893 4.40825 12.6893C9.68975 12.6893 12.5743 8.3166 12.5743 4.53076C12.5743 4.40885 12.5743 4.28576 12.5656 4.16326C13.1262 3.76135 13.6156 3.25326 14.0006 2.67693L13.9732 2.66526Z" fill="#9CA5B0"/>
</g>
<defs>
<clipPath id="clip0">
<path d="M0 0H14V14H0V0Z" fill="white"/>
</clipPath>
</defs>
</svg>
