<svg width="648" height="448" viewBox="0 0 648 448" fill="none" xmlns="http://www.w3.org/2000/svg">
<g filter="url(#filter0_d)">
<path d="M166 80.3867C166 71.5502 173.163 64.3867 182 64.3867H323.5C332.337 64.3867 339.5 71.5502 339.5 80.3867V163.887C339.5 172.723 346.663 179.887 355.5 179.887H465C473.837 179.887 481 187.05 481 195.887V368.387C481 377.223 473.837 384.387 465 384.387H182C173.163 384.387 166 377.223 166 368.387V80.3867Z" fill="white"/>
<path d="M166 80.3867C166 71.5502 173.163 64.3867 182 64.3867H323.5C332.337 64.3867 339.5 71.5502 339.5 80.3867V163.887C339.5 172.723 346.663 179.887 355.5 179.887H465C473.837 179.887 481 187.05 481 195.887V368.387C481 377.223 473.837 384.387 465 384.387H182C173.163 384.387 166 377.223 166 368.387V80.3867Z" fill="#003DC6" fill-opacity="0.25"/>
</g>
<g filter="url(#filter1_d)">
<rect x="190" y="84.3867" width="126" height="36" rx="4" fill="white"/>
<rect x="190" y="84.3867" width="126" height="36" rx="4" fill="#003DC6" fill-opacity="0.05"/>
</g>
<g filter="url(#filter2_d)">
<rect x="190" y="144.387" width="126" height="36" rx="4" fill="white"/>
<rect x="190" y="144.387" width="126" height="36" rx="4" fill="#003DC6" fill-opacity="0.05"/>
</g>
<g filter="url(#filter3_d)">
<rect x="190" y="204.387" width="126" height="36" rx="4" fill="white"/>
<rect x="190" y="204.387" width="126" height="36" rx="4" fill="#003DC6" fill-opacity="0.05"/>
</g>
<g filter="url(#filter4_d)">
<rect x="361" y="204" width="36" height="36" rx="4" fill="white"/>
<rect x="361" y="204" width="36" height="36" rx="4" fill="#003DC6" fill-opacity="0.05"/>
</g>
<g filter="url(#filter5_d)">
<rect x="421" y="204" width="36" height="36" rx="4" fill="white"/>
<rect x="421" y="204" width="36" height="36" rx="4" fill="#003DC6" fill-opacity="0.05"/>
</g>
<g filter="url(#filter6_d)">
<rect x="361" y="264" width="36" height="36" rx="4" fill="white"/>
<rect x="361" y="264" width="36" height="36" rx="4" fill="#003DC6" fill-opacity="0.05"/>
</g>
<g filter="url(#filter7_d)">
<rect x="421" y="264" width="36" height="36" rx="4" fill="white"/>
<rect x="421" y="264" width="36" height="36" rx="4" fill="#003DC6" fill-opacity="0.05"/>
</g>
<defs>
<filter id="filter0_d" x="166" y="60.3867" width="323" height="328" filterUnits="userSpaceOnUse" color-interpolation-filters="sRGB">
<feFlood flood-opacity="0" result="BackgroundImageFix"/>
<feColorMatrix in="SourceAlpha" type="matrix" values="0 0 0 0 0 0 0 0 0 0 0 0 0 0 0 0 0 0 127 0"/>
<feOffset dx="4"/>
<feGaussianBlur stdDeviation="2"/>
<feColorMatrix type="matrix" values="0 0 0 0 0 0 0 0 0 0.239216 0 0 0 0 0.776471 0 0 0 0.35 0"/>
<feBlend mode="normal" in2="BackgroundImageFix" result="effect1_dropShadow"/>
<feBlend mode="normal" in="SourceGraphic" in2="effect1_dropShadow" result="shape"/>
</filter>
<filter id="filter1_d" x="190" y="80.3867" width="134" height="44" filterUnits="userSpaceOnUse" color-interpolation-filters="sRGB">
<feFlood flood-opacity="0" result="BackgroundImageFix"/>
<feColorMatrix in="SourceAlpha" type="matrix" values="0 0 0 0 0 0 0 0 0 0 0 0 0 0 0 0 0 0 127 0"/>
<feOffset dx="4"/>
<feGaussianBlur stdDeviation="2"/>
<feColorMatrix type="matrix" values="0 0 0 0 0 0 0 0 0 0.239216 0 0 0 0 0.776471 0 0 0 0.25 0"/>
<feBlend mode="normal" in2="BackgroundImageFix" result="effect1_dropShadow"/>
<feBlend mode="normal" in="SourceGraphic" in2="effect1_dropShadow" result="shape"/>
</filter>
<filter id="filter2_d" x="190" y="140.387" width="134" height="44" filterUnits="userSpaceOnUse" color-interpolation-filters="sRGB">
<feFlood flood-opacity="0" result="BackgroundImageFix"/>
<feColorMatrix in="SourceAlpha" type="matrix" values="0 0 0 0 0 0 0 0 0 0 0 0 0 0 0 0 0 0 127 0"/>
<feOffset dx="4"/>
<feGaussianBlur stdDeviation="2"/>
<feColorMatrix type="matrix" values="0 0 0 0 0 0 0 0 0 0.239216 0 0 0 0 0.776471 0 0 0 0.25 0"/>
<feBlend mode="normal" in2="BackgroundImageFix" result="effect1_dropShadow"/>
<feBlend mode="normal" in="SourceGraphic" in2="effect1_dropShadow" result="shape"/>
</filter>
<filter id="filter3_d" x="190" y="200.387" width="134" height="44" filterUnits="userSpaceOnUse" color-interpolation-filters="sRGB">
<feFlood flood-opacity="0" result="BackgroundImageFix"/>
<feColorMatrix in="SourceAlpha" type="matrix" values="0 0 0 0 0 0 0 0 0 0 0 0 0 0 0 0 0 0 127 0"/>
<feOffset dx="4"/>
<feGaussianBlur stdDeviation="2"/>
<feColorMatrix type="matrix" values="0 0 0 0 0 0 0 0 0 0.239216 0 0 0 0 0.776471 0 0 0 0.25 0"/>
<feBlend mode="normal" in2="BackgroundImageFix" result="effect1_dropShadow"/>
<feBlend mode="normal" in="SourceGraphic" in2="effect1_dropShadow" result="shape"/>
</filter>
<filter id="filter4_d" x="361" y="200" width="44" height="44" filterUnits="userSpaceOnUse" color-interpolation-filters="sRGB">
<feFlood flood-opacity="0" result="BackgroundImageFix"/>
<feColorMatrix in="SourceAlpha" type="matrix" values="0 0 0 0 0 0 0 0 0 0 0 0 0 0 0 0 0 0 127 0"/>
<feOffset dx="4"/>
<feGaussianBlur stdDeviation="2"/>
<feColorMatrix type="matrix" values="0 0 0 0 0 0 0 0 0 0.239216 0 0 0 0 0.776471 0 0 0 0.25 0"/>
<feBlend mode="normal" in2="BackgroundImageFix" result="effect1_dropShadow"/>
<feBlend mode="normal" in="SourceGraphic" in2="effect1_dropShadow" result="shape"/>
</filter>
<filter id="filter5_d" x="421" y="200" width="44" height="44" filterUnits="userSpaceOnUse" color-interpolation-filters="sRGB">
<feFlood flood-opacity="0" result="BackgroundImageFix"/>
<feColorMatrix in="SourceAlpha" type="matrix" values="0 0 0 0 0 0 0 0 0 0 0 0 0 0 0 0 0 0 127 0"/>
<feOffset dx="4"/>
<feGaussianBlur stdDeviation="2"/>
<feColorMatrix type="matrix" values="0 0 0 0 0 0 0 0 0 0.239216 0 0 0 0 0.776471 0 0 0 0.25 0"/>
<feBlend mode="normal" in2="BackgroundImageFix" result="effect1_dropShadow"/>
<feBlend mode="normal" in="SourceGraphic" in2="effect1_dropShadow" result="shape"/>
</filter>
<filter id="filter6_d" x="361" y="260" width="44" height="44" filterUnits="userSpaceOnUse" color-interpolation-filters="sRGB">
<feFlood flood-opacity="0" result="BackgroundImageFix"/>
<feColorMatrix in="SourceAlpha" type="matrix" values="0 0 0 0 0 0 0 0 0 0 0 0 0 0 0 0 0 0 127 0"/>
<feOffset dx="4"/>
<feGaussianBlur stdDeviation="2"/>
<feColorMatrix type="matrix" values="0 0 0 0 0 0 0 0 0 0.239216 0 0 0 0 0.776471 0 0 0 0.25 0"/>
<feBlend mode="normal" in2="BackgroundImageFix" result="effect1_dropShadow"/>
<feBlend mode="normal" in="SourceGraphic" in2="effect1_dropShadow" result="shape"/>
</filter>
<filter id="filter7_d" x="421" y="260" width="44" height="44" filterUnits="userSpaceOnUse" color-interpolation-filters="sRGB">
<feFlood flood-opacity="0" result="BackgroundImageFix"/>
<feColorMatrix in="SourceAlpha" type="matrix" values="0 0 0 0 0 0 0 0 0 0 0 0 0 0 0 0 0 0 127 0"/>
<feOffset dx="4"/>
<feGaussianBlur stdDeviation="2"/>
<feColorMatrix type="matrix" values="0 0 0 0 0 0 0 0 0 0.239216 0 0 0 0 0.776471 0 0 0 0.25 0"/>
<feBlend mode="normal" in2="BackgroundImageFix" result="effect1_dropShadow"/>
<feBlend mode="normal" in="SourceGraphic" in2="effect1_dropShadow" result="shape"/>
</filter>
</defs>
</svg>
