<svg width="1127" height="408" viewBox="0 0 1127 408" fill="none" xmlns="http://www.w3.org/2000/svg">
<g filter="url(#filter0_d)">
<rect x="44" y="81" width="332" height="280" rx="12" fill="white"/>
<rect x="44" y="81" width="332" height="280" rx="12" fill="#003DC6" fill-opacity="0.05"/>
</g>
<g filter="url(#filter1_d)">
<rect x="186" y="269" width="48" height="48" rx="12" fill="white"/>
<rect x="186" y="269" width="48" height="48" rx="12" fill="#003DC6" fill-opacity="0.2"/>
</g>
<g filter="url(#filter2_f)">
<rect x="186" y="197" width="48" height="48" rx="12" fill="#003DC6" fill-opacity="0.1"/>
</g>
<g filter="url(#filter3_f)">
<rect x="186" y="125" width="48" height="48" rx="12" fill="#003DC6" fill-opacity="0.06"/>
</g>
<rect x="162" y="167" width="64" height="64" rx="16" fill="white"/>
<rect x="162" y="167" width="64" height="64" rx="16" fill="#003DC6" fill-opacity="0.3"/>
<rect x="90" y="33" width="96" height="96" rx="20" fill="white"/>
<rect x="90" y="33" width="96" height="96" rx="20" fill="#003DC6" fill-opacity="0.4"/>
<g filter="url(#filter4_d)">
<rect x="400" y="81" width="332" height="280" rx="12" fill="white"/>
<rect x="400" y="81" width="332" height="280" rx="12" fill="#003DC6" fill-opacity="0.05"/>
</g>
<g filter="url(#filter5_d)">
<rect x="394" y="126" width="300" height="190" rx="12" fill="white"/>
<rect x="394" y="126" width="300" height="190" rx="12" fill="#003DC6" fill-opacity="0.2"/>
</g>
<g filter="url(#filter6_f)">
<rect x="400" y="151" width="278" height="48" rx="12" fill="#003DC6" fill-opacity="0.1"/>
</g>
<rect x="368" y="145" width="300" height="48" rx="7" fill="white"/>
<rect x="368" y="145" width="300" height="48" rx="7" fill="#003DC6" fill-opacity="0.4"/>
<g filter="url(#filter7_d)">
<rect x="756" y="81" width="332" height="280" rx="12" fill="white"/>
<rect x="756" y="81" width="332" height="280" rx="12" fill="#003DC6" fill-opacity="0.05"/>
</g>
<g filter="url(#filter8_f)">
<path d="M922 130C922 123.373 916.611 117.931 910.024 118.666C894.339 120.416 879.177 125.589 865.632 133.877C848.663 144.26 834.892 159.128 825.837 176.841C816.782 194.553 812.795 214.423 814.316 234.258C815.53 250.091 820.216 265.411 827.983 279.15C831.245 284.919 838.812 286.101 844.184 282.22L859.747 270.976C865.119 267.095 866.21 259.623 863.385 253.628C860.038 246.528 857.995 238.847 857.39 230.955C856.477 219.054 858.869 207.132 864.302 196.504C869.735 185.877 877.998 176.956 888.179 170.726C894.931 166.595 902.353 163.753 910.068 162.308C916.582 161.088 922 155.827 922 149.2V130Z" fill="#003DC6" fill-opacity="0.06"/>
</g>
<g filter="url(#filter9_d)">
<path d="M847.496 292.702C844.205 295.649 843.906 300.731 847.088 303.796C859.441 315.691 874.48 324.501 890.979 329.449C910.039 335.164 930.307 335.503 949.548 330.428C968.788 325.352 986.252 315.06 1000.01 300.686C1011.92 288.244 1020.66 273.162 1025.54 256.721C1026.8 252.486 1024.03 248.213 1019.71 247.273L993.134 241.486C988.817 240.547 984.602 243.308 983.137 247.477C980.088 256.158 975.213 264.121 968.807 270.812C960.551 279.436 950.073 285.611 938.529 288.657C926.984 291.702 914.823 291.499 903.387 288.069C894.515 285.409 886.347 280.887 879.412 274.839C876.082 271.936 871.053 271.612 867.761 274.559L847.496 292.702Z" fill="white"/>
<path d="M847.496 292.702C844.205 295.649 843.906 300.731 847.088 303.796C859.441 315.691 874.48 324.501 890.979 329.449C910.039 335.164 930.307 335.503 949.548 330.428C968.788 325.352 986.252 315.06 1000.01 300.686C1011.92 288.244 1020.66 273.162 1025.54 256.721C1026.8 252.486 1024.03 248.213 1019.71 247.273L993.134 241.486C988.817 240.547 984.602 243.308 983.137 247.477C980.088 256.158 975.213 264.121 968.807 270.812C960.551 279.436 950.073 285.611 938.529 288.657C926.984 291.702 914.823 291.499 903.387 288.069C894.515 285.409 886.347 280.887 879.412 274.839C876.082 271.936 871.053 271.612 867.761 274.559L847.496 292.702Z" fill="#003DC6" fill-opacity="0.2"/>
</g>
<g filter="url(#filter10_f)">
<path d="M1017.4 236.712C1023.99 237.452 1030 232.704 1030 226.076C1030.01 215.942 1028.59 205.837 1025.77 196.062C1021.84 182.435 1015.26 169.716 1006.41 158.631C997.565 147.546 986.621 138.312 974.205 131.456C965.299 126.538 955.761 122.913 945.877 120.673C939.414 119.207 933.452 124.013 932.712 130.6L930.57 149.68C929.83 156.266 934.627 162.098 940.964 164.037C945.244 165.347 949.386 167.1 953.323 169.274C960.773 173.387 967.339 178.927 972.647 185.578C977.955 192.23 981.902 199.861 984.261 208.037C985.507 212.358 986.298 216.786 986.626 221.25C987.111 227.86 991.734 233.83 998.32 234.57L1017.4 236.712Z" fill="#003DC6" fill-opacity="0.1"/>
</g>
<path d="M1025.19 227.394C1031.78 228.134 1037.77 223.391 1037.95 216.766C1038.34 202.309 1036.5 187.855 1032.47 173.914C1027.34 156.124 1018.75 139.518 1007.2 125.046C995.654 110.574 981.367 98.5179 965.157 89.5674C952.456 82.5539 938.769 77.5546 924.587 74.7251C918.088 73.4284 912.134 78.2196 911.394 84.8056L907.779 117.003C907.04 123.589 911.815 129.444 918.23 131.107C925.072 132.881 931.68 135.509 937.894 138.94C947.62 144.311 956.193 151.544 963.123 160.227C970.053 168.911 975.205 178.874 978.285 189.549C980.253 196.37 981.35 203.396 981.562 210.46C981.761 217.084 986.411 223.04 992.997 223.779L1025.19 227.394Z" fill="white"/>
<path d="M1025.19 227.394C1031.78 228.134 1037.77 223.391 1037.95 216.766C1038.34 202.309 1036.5 187.855 1032.47 173.914C1027.34 156.124 1018.75 139.518 1007.2 125.046C995.654 110.574 981.367 98.5179 965.157 89.5674C952.456 82.5539 938.769 77.5546 924.587 74.7251C918.088 73.4284 912.134 78.2196 911.394 84.8056L907.779 117.003C907.04 123.589 911.815 129.444 918.23 131.107C925.072 132.881 931.68 135.509 937.894 138.94C947.62 144.311 956.193 151.544 963.123 160.227C970.053 168.911 975.205 178.874 978.285 189.549C980.253 196.37 981.35 203.396 981.562 210.46C981.761 217.084 986.411 223.04 992.997 223.779L1025.19 227.394Z" fill="#003DC6" fill-opacity="0.3"/>
<path d="M874 45C874 38.3726 868.619 32.952 862.011 33.4613C837.473 35.3525 813.669 43.0292 792.579 55.9337C768.069 70.9311 748.177 92.4067 735.098 117.992C722.018 143.577 716.26 172.278 718.457 200.928C720.347 225.58 728.065 249.371 740.902 270.369C744.359 276.023 751.904 277.211 757.276 273.33L788.402 250.842C793.774 246.96 794.906 239.488 791.744 233.664C785.475 222.12 781.685 209.344 780.674 196.157C779.356 178.967 782.811 161.746 790.659 146.395C798.506 131.044 810.441 118.159 825.147 109.16C836.429 102.257 849.004 97.8477 862.033 96.1682C868.606 95.3208 874 90.0274 874 83.4V45Z" fill="white"/>
<path d="M874 45C874 38.3726 868.619 32.952 862.011 33.4613C837.473 35.3525 813.669 43.0292 792.579 55.9337C768.069 70.9311 748.177 92.4067 735.098 117.992C722.018 143.577 716.26 172.278 718.457 200.928C720.347 225.58 728.065 249.371 740.902 270.369C744.359 276.023 751.904 277.211 757.276 273.33L788.402 250.842C793.774 246.96 794.906 239.488 791.744 233.664C785.475 222.12 781.685 209.344 780.674 196.157C779.356 178.967 782.811 161.746 790.659 146.395C798.506 131.044 810.441 118.159 825.147 109.16C836.429 102.257 849.004 97.8477 862.033 96.1682C868.606 95.3208 874 90.0274 874 83.4V45Z" fill="#003DC6" fill-opacity="0.4"/>
<defs>
<filter id="filter0_d" x="44" y="77" width="340" height="288" filterUnits="userSpaceOnUse" color-interpolation-filters="sRGB">
<feFlood flood-opacity="0" result="BackgroundImageFix"/>
<feColorMatrix in="SourceAlpha" type="matrix" values="0 0 0 0 0 0 0 0 0 0 0 0 0 0 0 0 0 0 127 0"/>
<feOffset dx="4"/>
<feGaussianBlur stdDeviation="2"/>
<feColorMatrix type="matrix" values="0 0 0 0 0 0 0 0 0 0.239216 0 0 0 0 0.776471 0 0 0 0.15 0"/>
<feBlend mode="normal" in2="BackgroundImageFix" result="effect1_dropShadow"/>
<feBlend mode="normal" in="SourceGraphic" in2="effect1_dropShadow" result="shape"/>
</filter>
<filter id="filter1_d" x="186" y="265" width="56" height="56" filterUnits="userSpaceOnUse" color-interpolation-filters="sRGB">
<feFlood flood-opacity="0" result="BackgroundImageFix"/>
<feColorMatrix in="SourceAlpha" type="matrix" values="0 0 0 0 0 0 0 0 0 0 0 0 0 0 0 0 0 0 127 0"/>
<feOffset dx="4"/>
<feGaussianBlur stdDeviation="2"/>
<feColorMatrix type="matrix" values="0 0 0 0 0 0 0 0 0 0.239216 0 0 0 0 0.776471 0 0 0 0.3 0"/>
<feBlend mode="normal" in2="BackgroundImageFix" result="effect1_dropShadow"/>
<feBlend mode="normal" in="SourceGraphic" in2="effect1_dropShadow" result="shape"/>
</filter>
<filter id="filter2_f" x="170" y="181" width="80" height="80" filterUnits="userSpaceOnUse" color-interpolation-filters="sRGB">
<feFlood flood-opacity="0" result="BackgroundImageFix"/>
<feBlend mode="normal" in="SourceGraphic" in2="BackgroundImageFix" result="shape"/>
<feGaussianBlur stdDeviation="8" result="effect1_foregroundBlur"/>
</filter>
<filter id="filter3_f" x="162" y="101" width="96" height="96" filterUnits="userSpaceOnUse" color-interpolation-filters="sRGB">
<feFlood flood-opacity="0" result="BackgroundImageFix"/>
<feBlend mode="normal" in="SourceGraphic" in2="BackgroundImageFix" result="shape"/>
<feGaussianBlur stdDeviation="12" result="effect1_foregroundBlur"/>
</filter>
<filter id="filter4_d" x="400" y="77" width="340" height="288" filterUnits="userSpaceOnUse" color-interpolation-filters="sRGB">
<feFlood flood-opacity="0" result="BackgroundImageFix"/>
<feColorMatrix in="SourceAlpha" type="matrix" values="0 0 0 0 0 0 0 0 0 0 0 0 0 0 0 0 0 0 127 0"/>
<feOffset dx="4"/>
<feGaussianBlur stdDeviation="2"/>
<feColorMatrix type="matrix" values="0 0 0 0 0 0 0 0 0 0.239216 0 0 0 0 0.776471 0 0 0 0.15 0"/>
<feBlend mode="normal" in2="BackgroundImageFix" result="effect1_dropShadow"/>
<feBlend mode="normal" in="SourceGraphic" in2="effect1_dropShadow" result="shape"/>
</filter>
<filter id="filter5_d" x="394" y="122" width="308" height="198" filterUnits="userSpaceOnUse" color-interpolation-filters="sRGB">
<feFlood flood-opacity="0" result="BackgroundImageFix"/>
<feColorMatrix in="SourceAlpha" type="matrix" values="0 0 0 0 0 0 0 0 0 0 0 0 0 0 0 0 0 0 127 0"/>
<feOffset dx="4"/>
<feGaussianBlur stdDeviation="2"/>
<feColorMatrix type="matrix" values="0 0 0 0 0 0 0 0 0 0.239216 0 0 0 0 0.776471 0 0 0 0.3 0"/>
<feBlend mode="normal" in2="BackgroundImageFix" result="effect1_dropShadow"/>
<feBlend mode="normal" in="SourceGraphic" in2="effect1_dropShadow" result="shape"/>
</filter>
<filter id="filter6_f" x="384" y="135" width="310" height="80" filterUnits="userSpaceOnUse" color-interpolation-filters="sRGB">
<feFlood flood-opacity="0" result="BackgroundImageFix"/>
<feBlend mode="normal" in="SourceGraphic" in2="BackgroundImageFix" result="shape"/>
<feGaussianBlur stdDeviation="8" result="effect1_foregroundBlur"/>
</filter>
<filter id="filter7_d" x="756" y="77" width="340" height="288" filterUnits="userSpaceOnUse" color-interpolation-filters="sRGB">
<feFlood flood-opacity="0" result="BackgroundImageFix"/>
<feColorMatrix in="SourceAlpha" type="matrix" values="0 0 0 0 0 0 0 0 0 0 0 0 0 0 0 0 0 0 127 0"/>
<feOffset dx="4"/>
<feGaussianBlur stdDeviation="2"/>
<feColorMatrix type="matrix" values="0 0 0 0 0 0 0 0 0 0.239216 0 0 0 0 0.776471 0 0 0 0.15 0"/>
<feBlend mode="normal" in2="BackgroundImageFix" result="effect1_dropShadow"/>
<feBlend mode="normal" in="SourceGraphic" in2="effect1_dropShadow" result="shape"/>
</filter>
<filter id="filter8_f" x="790" y="94.5993" width="156" height="213.879" filterUnits="userSpaceOnUse" color-interpolation-filters="sRGB">
<feFlood flood-opacity="0" result="BackgroundImageFix"/>
<feBlend mode="normal" in="SourceGraphic" in2="BackgroundImageFix" result="shape"/>
<feGaussianBlur stdDeviation="12" result="effect1_foregroundBlur"/>
</filter>
<filter id="filter9_d" x="844.857" y="237.302" width="188.986" height="100.698" filterUnits="userSpaceOnUse" color-interpolation-filters="sRGB">
<feFlood flood-opacity="0" result="BackgroundImageFix"/>
<feColorMatrix in="SourceAlpha" type="matrix" values="0 0 0 0 0 0 0 0 0 0 0 0 0 0 0 0 0 0 127 0"/>
<feOffset dx="4"/>
<feGaussianBlur stdDeviation="2"/>
<feColorMatrix type="matrix" values="0 0 0 0 0 0 0 0 0 0.239216 0 0 0 0 0.776471 0 0 0 0.3 0"/>
<feBlend mode="normal" in2="BackgroundImageFix" result="effect1_dropShadow"/>
<feBlend mode="normal" in="SourceGraphic" in2="effect1_dropShadow" result="shape"/>
</filter>
<filter id="filter10_f" x="914.494" y="104.408" width="131.506" height="148.38" filterUnits="userSpaceOnUse" color-interpolation-filters="sRGB">
<feFlood flood-opacity="0" result="BackgroundImageFix"/>
<feBlend mode="normal" in="SourceGraphic" in2="BackgroundImageFix" result="shape"/>
<feGaussianBlur stdDeviation="8" result="effect1_foregroundBlur"/>
</filter>
</defs>
</svg>
