<svg width="648" height="448" viewBox="0 0 648 448" fill="none" xmlns="http://www.w3.org/2000/svg">
<g filter="url(#filter0_d)">
<rect x="211.436" y="77" width="307.359" height="242" rx="16" transform="rotate(18.1628 211.436 77)" fill="white"/>
<rect x="211.436" y="77" width="307.359" height="242" rx="16" transform="rotate(18.1628 211.436 77)" fill="#003DC6" fill-opacity="0.25"/>
</g>
<g filter="url(#filter1_d)">
<path fill-rule="evenodd" clip-rule="evenodd" d="M377 334C410.175 334 479 223.212 479 154.653C479 94.0932 437.751 45 377 45C316.249 45 275 94.0932 275 154.653C275 223.212 343.825 334 377 334ZM377 197C407.376 197 432 172.376 432 142C432 111.624 407.376 87 377 87C346.624 87 322 111.624 322 142C322 172.376 346.624 197 377 197Z" fill="white"/>
<path fill-rule="evenodd" clip-rule="evenodd" d="M377 334C410.175 334 479 223.212 479 154.653C479 94.0932 437.751 45 377 45C316.249 45 275 94.0932 275 154.653C275 223.212 343.825 334 377 334ZM377 197C407.376 197 432 172.376 432 142C432 111.624 407.376 87 377 87C346.624 87 322 111.624 322 142C322 172.376 346.624 197 377 197Z" fill="#003DC6" fill-opacity="0.05"/>
</g>
<defs>
<filter id="filter0_d" x="136" y="73" width="375.48" height="333.752" filterUnits="userSpaceOnUse" color-interpolation-filters="sRGB">
<feFlood flood-opacity="0" result="BackgroundImageFix"/>
<feColorMatrix in="SourceAlpha" type="matrix" values="0 0 0 0 0 0 0 0 0 0 0 0 0 0 0 0 0 0 127 0"/>
<feOffset dx="4"/>
<feGaussianBlur stdDeviation="2"/>
<feColorMatrix type="matrix" values="0 0 0 0 0 0 0 0 0 0.239216 0 0 0 0 0.776471 0 0 0 0.35 0"/>
<feBlend mode="normal" in2="BackgroundImageFix" result="effect1_dropShadow"/>
<feBlend mode="normal" in="SourceGraphic" in2="effect1_dropShadow" result="shape"/>
</filter>
<filter id="filter1_d" x="275" y="41" width="212" height="297" filterUnits="userSpaceOnUse" color-interpolation-filters="sRGB">
<feFlood flood-opacity="0" result="BackgroundImageFix"/>
<feColorMatrix in="SourceAlpha" type="matrix" values="0 0 0 0 0 0 0 0 0 0 0 0 0 0 0 0 0 0 127 0"/>
<feOffset dx="4"/>
<feGaussianBlur stdDeviation="2"/>
<feColorMatrix type="matrix" values="0 0 0 0 0 0 0 0 0 0.239216 0 0 0 0 0.776471 0 0 0 0.25 0"/>
<feBlend mode="normal" in2="BackgroundImageFix" result="effect1_dropShadow"/>
<feBlend mode="normal" in="SourceGraphic" in2="effect1_dropShadow" result="shape"/>
</filter>
</defs>
</svg>
