<svg width="24" height="24" viewBox="0 0 24 24" fill="none" xmlns="http://www.w3.org/2000/svg">
<path d="M11.2499 3.01032C11.714 2.7424 12.2857 2.74241 12.7498 3.01035L18.736 6.46646C19.0693 6.65891 19.0693 7.14004 18.7359 7.33249L12.7498 10.7886C12.2857 11.0565 11.714 11.0566 11.2499 10.7886L5.26305 7.3325C4.92969 7.14006 4.92969 6.6589 5.26305 6.46645L11.2499 3.01032Z" fill="#081E39"/>
<path d="M19.75 9.08725C20.0834 8.89483 20.5 9.13539 20.5 9.52028V16.4333C20.5 16.9692 20.2141 17.4644 19.75 17.7323L13.763 21.1889C13.4297 21.3813 13.013 21.1408 13.013 20.7559V13.8424C13.013 13.3064 13.2989 12.8112 13.7631 12.5433L19.75 9.08725Z" fill="#081E39"/>
<path d="M4.24998 9.08725C3.91664 8.89483 3.5 9.13539 3.5 9.52028V16.4333C3.5 16.9692 3.78589 17.4644 4.24999 17.7323L10.2368 21.1888C10.5701 21.3813 10.9868 21.1407 10.9868 20.7558V13.8423C10.9868 13.3064 10.7008 12.8112 10.2367 12.5433L4.24998 9.08725Z" fill="#081E39"/>
</svg>
