<svg width="24" height="24" viewBox="0 0 24 24" fill="none" xmlns="http://www.w3.org/2000/svg">
<path fill-rule="evenodd" clip-rule="evenodd" d="M12 22C17.5228 22 22 17.5228 22 12C22 6.47715 17.5228 2 12 2C6.47715 2 2 6.47715 2 12C2 17.5228 6.47715 22 12 22ZM12 19.5863C12.3288 19.221 12.7442 18.71 13.1602 18.0665C13.5284 17.4969 13.8943 16.8282 14.2016 16.068C13.5221 16.0254 12.7869 16 12 16C11.2131 16 10.4779 16.0254 9.7984 16.068C10.1057 16.8282 10.4716 17.4969 10.8398 18.0665C11.2558 18.71 11.6712 19.221 12 19.5863ZM7.73435 16.2634C8.13317 17.3919 8.64837 18.3605 9.16021 19.1523C9.25757 19.3029 9.35496 19.4474 9.4516 19.5855C7.83961 19.0442 6.4569 18.0034 5.48735 16.6471C5.72547 16.5949 5.99816 16.5395 6.30389 16.4839C6.72073 16.4081 7.19883 16.332 7.73435 16.2634ZM9.20832 14.1041C10.055 14.0399 10.9881 14 12 14C13.0119 14 13.945 14.0399 14.7917 14.1041C14.9233 13.4472 15 12.7449 15 12C15 11.2551 14.9233 10.5528 14.7917 9.89586C13.945 9.96009 13.0119 9.99998 12 9.99998C10.9882 9.99998 10.055 9.96008 9.20833 9.89586C9.07674 10.5528 9 11.2551 9 12C9 12.7449 9.07674 13.4472 9.20832 14.1041ZM16.2657 16.2634C15.8668 17.3919 15.3516 18.3605 14.8398 19.1523C14.7424 19.3029 14.645 19.4474 14.5484 19.5855C16.1604 19.0442 17.5431 18.0034 18.5126 16.6471C18.2745 16.5949 18.0019 16.5395 17.6961 16.4839C17.2793 16.4081 16.8012 16.332 16.2657 16.2634ZM19.4884 14.821C19.1235 14.7307 18.6424 14.6231 18.0539 14.5161C17.6756 14.4473 17.2528 14.3788 16.7879 14.3151C16.9223 13.5897 17 12.817 17 12C17 11.183 16.9223 10.4103 16.7879 9.68486C17.2528 9.62121 17.6756 9.55263 18.0539 9.48385C18.6424 9.37685 19.1235 9.26933 19.4884 9.179C19.8191 10.0563 20 11.007 20 12C20 12.993 19.8191 13.9437 19.4884 14.821ZM7.21206 14.3151C6.74719 14.3788 6.32442 14.4473 5.94612 14.5161C5.35764 14.6231 4.87651 14.7307 4.51156 14.821C4.18091 13.9437 4 12.993 4 12C4 11.007 4.18091 10.0563 4.51157 9.179C4.87652 9.26932 5.35765 9.37685 5.94612 9.48385C6.32442 9.55263 6.74719 9.62121 7.21207 9.68486C7.07771 10.4103 7 11.183 7 12C7 12.817 7.07771 13.5897 7.21206 14.3151ZM17.6961 7.51611C18.0018 7.46052 18.2745 7.4051 18.5126 7.3529C17.5431 5.99656 16.1604 4.95579 14.5484 4.41445C14.645 4.55265 14.7424 4.69711 14.8398 4.84774C15.3516 5.63947 15.8668 6.60812 16.2656 7.73662C16.8012 7.66797 17.2793 7.59189 17.6961 7.51611ZM12 7.99998C12.7869 7.99998 13.5221 7.97453 14.2016 7.93196C13.8943 7.17181 13.5284 6.50308 13.1602 5.93354C12.7442 5.29005 12.3288 4.77904 12 4.4137C11.6712 4.77904 11.2558 5.29005 10.8398 5.93354C10.4716 6.50308 10.1057 7.17181 9.79842 7.93196C10.4779 7.97453 11.2131 7.99998 12 7.99998ZM9.16021 4.84774C8.64838 5.63947 8.13319 6.60812 7.73437 7.73662C7.19884 7.66796 6.72073 7.59189 6.30389 7.51611C5.99816 7.46052 5.72548 7.4051 5.48737 7.35289C6.45692 5.99656 7.83963 4.95578 9.45162 4.41445C9.35498 4.55265 9.25758 4.69711 9.16021 4.84774Z" fill="#081E39"/>
</svg>
