<svg width="32" height="32" viewBox="0 0 32 32" fill="none" xmlns="http://www.w3.org/2000/svg">
<path fill-rule="evenodd" clip-rule="evenodd" d="M16.0001 29.3334C23.3639 29.3334 29.3334 23.3639 29.3334 16.0001C29.3334 8.63628 23.3639 2.66675 16.0001 2.66675C8.63628 2.66675 2.66675 8.63628 2.66675 16.0001C2.66675 23.3639 8.63628 29.3334 16.0001 29.3334ZM17.3334 9.33342C17.3334 8.59704 16.7365 8.00008 16.0001 8.00008C15.2637 8.00008 14.6667 8.59704 14.6667 9.33342V16.0001C14.6667 16.3537 14.8072 16.6928 15.0573 16.9429L19.0573 20.9429C19.578 21.4636 20.4222 21.4636 20.9429 20.9429C21.4636 20.4222 21.4636 19.578 20.9429 19.0573L17.3334 15.4478V9.33342Z" fill="#9CA5B0"/>
</svg>
