<svg width="1128" height="408" viewBox="0 0 1128 408" fill="none" xmlns="http://www.w3.org/2000/svg">
<rect opacity="0.1" width="1128" height="408" fill="white"/>
<g filter="url(#filter0_d)">
<path d="M818.703 249.918C819.913 231.1 820.518 221.692 826.74 216.222C832.962 210.752 842.371 211.357 861.188 212.568L973.955 219.821C992.772 221.032 1002.18 221.637 1007.65 227.859C1013.12 234.08 1012.52 243.489 1011.3 262.306L1005.7 349.365C1004.85 362.657 1004.42 369.303 1000.46 371.394C999.914 371.683 999.334 371.908 998.735 372.063C994.399 373.188 989.604 368.566 980.015 359.322C975.327 354.803 972.984 352.544 970.121 351.156C969.69 350.947 969.253 350.754 968.809 350.577C965.853 349.397 962.605 349.188 956.107 348.77L852.854 342.128C834.037 340.918 824.628 340.313 819.158 334.091C813.689 327.869 814.294 318.461 815.504 299.643L818.703 249.918Z" fill="white"/>
<path d="M818.703 249.918C819.913 231.1 820.518 221.692 826.74 216.222C832.962 210.752 842.371 211.357 861.188 212.568L973.955 219.821C992.772 221.032 1002.18 221.637 1007.65 227.859C1013.12 234.08 1012.52 243.489 1011.3 262.306L1005.7 349.365C1004.85 362.657 1004.42 369.303 1000.46 371.394C999.914 371.683 999.334 371.908 998.735 372.063C994.399 373.188 989.604 368.566 980.015 359.322C975.327 354.803 972.984 352.544 970.121 351.156C969.69 350.947 969.253 350.754 968.809 350.577C965.853 349.397 962.605 349.188 956.107 348.77L852.854 342.128C834.037 340.918 824.628 340.313 819.158 334.091C813.689 327.869 814.294 318.461 815.504 299.643L818.703 249.918Z" fill="#003DC6" fill-opacity="0.05"/>
</g>
<g filter="url(#filter1_d)">
<path d="M885.171 289.271C890.922 289.641 895.937 285.337 896.314 279.473C896.688 273.662 892.266 268.751 886.515 268.381C880.764 268.011 875.798 272.318 875.424 278.13C875.047 283.994 879.42 288.901 885.171 289.271Z" fill="white"/>
</g>
<g filter="url(#filter2_d)">
<path d="M912.658 291.039C918.409 291.409 923.424 287.105 923.801 281.242C924.175 275.43 919.753 270.519 914.002 270.149C908.251 269.779 903.285 274.086 902.911 279.898C902.534 285.762 906.907 290.669 912.658 291.039Z" fill="white"/>
</g>
<g filter="url(#filter3_d)">
<path d="M940.145 292.807C945.896 293.177 950.911 288.873 951.288 283.01C951.662 277.198 947.239 272.287 941.489 271.917C935.738 271.547 930.772 275.854 930.398 281.666C930.021 287.53 934.394 292.437 940.145 292.807Z" fill="white"/>
</g>
<g filter="url(#filter4_d)">
<path d="M577.185 259.002C580.751 236.658 582.534 225.485 576.701 217.436C570.867 209.386 559.695 207.603 537.35 204.037L352.687 174.565C330.343 170.999 319.17 169.216 311.121 175.049C303.071 180.883 301.288 192.055 297.722 214.4L276.306 348.584C272.881 370.046 271.168 380.777 277.178 385.1C277.384 385.248 277.594 385.389 277.809 385.524C284.081 389.458 293.371 383.82 311.953 372.546C319.196 368.151 322.818 365.954 326.878 365.116C327.031 365.085 327.185 365.055 327.339 365.026C331.414 364.269 335.598 364.936 343.965 366.272L507.297 392.34C529.642 395.906 540.814 397.689 548.864 391.855C556.913 386.021 558.696 374.849 562.262 352.504L577.185 259.002Z" fill="white"/>
<path d="M577.185 259.002C580.751 236.658 582.534 225.485 576.701 217.436C570.867 209.386 559.695 207.603 537.35 204.037L352.687 174.565C330.343 170.999 319.17 169.216 311.121 175.049C303.071 180.883 301.288 192.055 297.722 214.4L276.306 348.584C272.881 370.046 271.168 380.777 277.178 385.1C277.384 385.248 277.594 385.389 277.809 385.524C284.081 389.458 293.371 383.82 311.953 372.546C319.196 368.151 322.818 365.954 326.878 365.116C327.031 365.085 327.185 365.055 327.339 365.026C331.414 364.269 335.598 364.936 343.965 366.272L507.297 392.34C529.642 395.906 540.814 397.689 548.864 391.855C556.913 386.021 558.696 374.849 562.262 352.504L577.185 259.002Z" fill="#003DC6" fill-opacity="0.15"/>
</g>
<g filter="url(#filter5_d)">
<path d="M424.32 299.368C430.556 300.364 435.144 298.326 438.341 293.138C441.106 288.672 443.246 286.639 455.01 282.185C467.872 277.273 474.096 270.431 475.882 259.24C478.974 239.868 465.098 224.911 440.463 220.979C422.218 218.067 407.751 222.644 400.948 231.135C398.786 233.797 397.435 236.826 396.905 240.145C395.584 247.928 400.147 253.959 408.462 255.286C414.39 256.232 420.08 254.212 423.434 249.524C426.47 245.339 430.202 243.718 435.052 244.492C440.672 245.389 444.315 249.77 443.514 254.786C442.504 261.115 439.52 263.488 427.579 268.072C419.178 271.243 413.888 275.701 412.643 283.496C411.338 291.677 416.083 298.054 424.32 299.368ZM418.944 336.025C427.951 337.463 436.425 331.851 437.805 323.206C439.172 314.64 432.866 306.668 423.858 305.231C414.851 303.793 406.454 309.418 405.087 317.985C403.707 326.629 409.937 334.588 418.944 336.025Z" fill="white"/>
<path d="M424.32 299.368C430.556 300.364 435.144 298.326 438.341 293.138C441.106 288.672 443.246 286.639 455.01 282.185C467.872 277.273 474.096 270.431 475.882 259.24C478.974 239.868 465.098 224.911 440.463 220.979C422.218 218.067 407.751 222.644 400.948 231.135C398.786 233.797 397.435 236.826 396.905 240.145C395.584 247.928 400.147 253.959 408.462 255.286C414.39 256.232 420.08 254.212 423.434 249.524C426.47 245.339 430.202 243.718 435.052 244.492C440.672 245.389 444.315 249.77 443.514 254.786C442.504 261.115 439.52 263.488 427.579 268.072C419.178 271.243 413.888 275.701 412.643 283.496C411.338 291.677 416.083 298.054 424.32 299.368ZM418.944 336.025C427.951 337.463 436.425 331.851 437.805 323.206C439.172 314.64 432.866 306.668 423.858 305.231C414.851 303.793 406.454 309.418 405.087 317.985C403.707 326.629 409.937 334.588 418.944 336.025Z" fill="#003DC6" fill-opacity="0.05"/>
</g>
<g filter="url(#filter6_d)">
<path d="M485.455 100.499C482.412 78.0767 480.891 66.8657 486.911 58.9548C492.931 51.0439 504.142 49.5224 526.564 46.4794L777.266 12.4551C799.688 9.41214 810.899 7.89064 818.809 13.9109C826.72 19.9311 828.242 31.1421 831.285 53.5639L854.653 225.751C858.447 253.702 860.344 267.678 852.591 273.297C852.09 273.66 851.568 273.994 851.028 274.297C842.677 278.981 830.783 271.401 806.995 256.242C800.036 251.807 796.557 249.59 792.631 248.653C792.352 248.587 792.072 248.525 791.79 248.469C787.834 247.674 783.745 248.228 775.568 249.338L558.101 278.852C535.679 281.895 524.468 283.416 516.557 277.396C508.646 271.376 507.124 260.165 504.081 237.743L485.455 100.499Z" fill="white"/>
<path d="M485.455 100.499C482.412 78.0767 480.891 66.8657 486.911 58.9548C492.931 51.0439 504.142 49.5224 526.564 46.4794L777.266 12.4551C799.688 9.41214 810.899 7.89064 818.809 13.9109C826.72 19.9311 828.242 31.1421 831.285 53.5639L854.653 225.751C858.447 253.702 860.344 267.678 852.591 273.297C852.09 273.66 851.568 273.994 851.028 274.297C842.677 278.981 830.783 271.401 806.995 256.242C800.036 251.807 796.557 249.59 792.631 248.653C792.352 248.587 792.072 248.525 791.79 248.469C787.834 247.674 783.745 248.228 775.568 249.338L558.101 278.852C535.679 281.895 524.468 283.416 516.557 277.396C508.646 271.376 507.124 260.165 504.081 237.743L485.455 100.499Z" fill="#003DC6" fill-opacity="0.3"/>
</g>
<g filter="url(#filter7_d)">
<path d="M665.646 173.433C673.68 172.343 678.565 168.141 680.57 160.588C682.313 154.082 684.19 150.794 696.998 140.966C710.988 130.169 716.101 119.464 714.147 105.067C710.765 80.1455 688.163 66.9327 656.423 71.2403C632.916 74.4306 616.83 85.4111 611.617 98.354C609.947 102.423 609.408 106.642 609.988 110.912C611.25 120.953 619.096 126.664 629.808 125.21C637.445 124.173 643.691 119.584 646.075 112.587C648.255 106.325 652.242 102.952 658.491 102.104C665.732 101.122 671.834 105.147 672.709 111.601C673.814 119.743 671.026 123.762 658.047 133.815C648.896 140.82 644.047 148.254 645.408 158.282C646.836 168.807 655.033 174.874 665.646 173.433ZM672.629 220.416C684.233 218.841 692.569 208.811 691.06 197.691C689.564 186.67 678.857 179.224 667.252 180.799C655.647 182.374 647.41 192.391 648.906 203.412C650.415 214.532 661.024 221.991 672.629 220.416Z" fill="white"/>
<path d="M665.646 173.433C673.68 172.343 678.565 168.141 680.57 160.588C682.313 154.082 684.19 150.794 696.998 140.966C710.988 130.169 716.101 119.464 714.147 105.067C710.765 80.1455 688.163 66.9327 656.423 71.2403C632.916 74.4306 616.83 85.4111 611.617 98.354C609.947 102.423 609.408 106.642 609.988 110.912C611.25 120.953 619.096 126.664 629.808 125.21C637.445 124.173 643.691 119.584 646.075 112.587C648.255 106.325 652.242 102.952 658.491 102.104C665.732 101.122 671.834 105.147 672.709 111.601C673.814 119.743 671.026 123.762 658.047 133.815C648.896 140.82 644.047 148.254 645.408 158.282C646.836 168.807 655.033 174.874 665.646 173.433ZM672.629 220.416C684.233 218.841 692.569 208.811 691.06 197.691C689.564 186.67 678.857 179.224 667.252 180.799C655.647 182.374 647.41 192.391 648.906 203.412C650.415 214.532 661.024 221.991 672.629 220.416Z" fill="#003DC6" fill-opacity="0.15"/>
</g>
<g filter="url(#filter8_d)">
<path d="M394.507 66.3784C396.25 55.1997 397.121 49.6103 394.19 45.5962C391.258 41.582 385.669 40.7106 374.49 38.9679L302.192 27.6968C291.013 25.9541 285.424 25.0827 281.409 28.0141C277.395 30.9454 276.524 36.5348 274.781 47.7135L266.369 101.67C265.198 109.184 264.612 112.941 266.072 114.946C266.911 116.1 268.135 116.916 269.523 117.249C271.934 117.828 275.179 115.846 281.669 111.882C284.226 110.32 285.505 109.539 286.898 109.099C287.731 108.836 288.591 108.664 289.462 108.588C290.917 108.46 292.398 108.691 295.359 109.152L361.931 119.531C373.11 121.273 378.699 122.145 382.713 119.213C386.727 116.282 387.599 110.693 389.341 99.5139L394.507 66.3784Z" fill="white"/>
<path d="M394.507 66.3784C396.25 55.1997 397.121 49.6103 394.19 45.5962C391.258 41.582 385.669 40.7106 374.49 38.9679L302.192 27.6968C291.013 25.9541 285.424 25.0827 281.409 28.0141C277.395 30.9454 276.524 36.5348 274.781 47.7135L266.369 101.67C265.198 109.184 264.612 112.941 266.072 114.946C266.911 116.1 268.135 116.916 269.523 117.249C271.934 117.828 275.179 115.846 281.669 111.882C284.226 110.32 285.505 109.539 286.898 109.099C287.731 108.836 288.591 108.664 289.462 108.588C290.917 108.46 292.398 108.691 295.359 109.152L361.931 119.531C373.11 121.273 378.699 122.145 382.713 119.213C386.727 116.282 387.599 110.693 389.341 99.5139L394.507 66.3784Z" fill="#003DC6" fill-opacity="0.4"/>
</g>
<g filter="url(#filter9_d)">
<g filter="url(#filter10_d)">
<path d="M312.425 77.15C316.243 77.7453 319.853 75.1746 320.46 71.281C321.062 67.4223 318.406 63.8746 314.587 63.2793C310.769 62.684 307.191 65.2599 306.59 69.1186C305.983 73.0122 308.606 76.5547 312.425 77.15Z" fill="white"/>
<path d="M312.425 77.15C316.243 77.7453 319.853 75.1746 320.46 71.281C321.062 67.4223 318.406 63.8746 314.587 63.2793C310.769 62.684 307.191 65.2599 306.59 69.1186C305.983 73.0122 308.606 76.5547 312.425 77.15Z" fill="#003DC6" fill-opacity="0.2"/>
</g>
<g filter="url(#filter11_d)">
<path d="M330.676 79.9952C334.494 80.5905 338.104 78.0198 338.711 74.1263C339.313 70.2675 336.657 66.7198 332.838 66.1246C329.02 65.5293 325.442 68.1051 324.841 71.9639C324.234 75.8574 326.857 79.3999 330.676 79.9952Z" fill="white"/>
<path d="M330.676 79.9952C334.494 80.5905 338.104 78.0198 338.711 74.1263C339.313 70.2675 336.657 66.7198 332.838 66.1246C329.02 65.5293 325.442 68.1051 324.841 71.9639C324.234 75.8574 326.857 79.3999 330.676 79.9952Z" fill="#003DC6" fill-opacity="0.2"/>
</g>
<g filter="url(#filter12_d)">
<path d="M348.927 82.8407C352.745 83.436 356.356 80.8652 356.962 76.9717C357.564 73.113 354.908 69.5653 351.089 68.97C347.271 68.3747 343.693 70.9506 343.092 74.8093C342.485 78.7028 345.108 82.2454 348.927 82.8407Z" fill="white"/>
<path d="M348.927 82.8407C352.745 83.436 356.356 80.8652 356.962 76.9717C357.564 73.113 354.908 69.5653 351.089 68.97C347.271 68.3747 343.693 70.9506 343.092 74.8093C342.485 78.7028 345.108 82.2454 348.927 82.8407Z" fill="#003DC6" fill-opacity="0.2"/>
</g>
</g>
<g filter="url(#filter13_d)">
<path d="M132.036 260.531C129.533 241.841 128.281 232.497 133.31 225.913C138.338 219.33 147.683 218.078 166.372 215.575L269.452 201.77C288.141 199.267 297.486 198.016 304.069 203.044C310.653 208.073 311.904 217.417 314.407 236.107L325.134 316.2C326.722 328.054 327.515 333.981 324.7 336.781C323.885 337.591 322.906 338.216 321.828 338.613C318.103 339.988 313.062 336.771 302.979 330.338C298.037 327.184 295.566 325.607 292.817 324.806C291.97 324.559 291.107 324.368 290.234 324.235C287.404 323.804 284.498 324.193 278.687 324.972L182.744 337.821C164.055 340.324 154.71 341.575 148.126 336.547C141.543 331.518 140.291 322.174 137.788 303.484L132.036 260.531Z" fill="white"/>
<path d="M132.036 260.531C129.533 241.841 128.281 232.497 133.31 225.913C138.338 219.33 147.683 218.078 166.372 215.575L269.452 201.77C288.141 199.267 297.486 198.016 304.069 203.044C310.653 208.073 311.904 217.417 314.407 236.107L325.134 316.2C326.722 328.054 327.515 333.981 324.7 336.781C323.885 337.591 322.906 338.216 321.828 338.613C318.103 339.988 313.062 336.771 302.979 330.338C298.037 327.184 295.566 325.607 292.817 324.806C291.97 324.559 291.107 324.368 290.234 324.235C287.404 323.804 284.498 324.193 278.687 324.972L182.744 337.821C164.055 340.324 154.71 341.575 148.126 336.547C141.543 331.518 140.291 322.174 137.788 303.484L132.036 260.531Z" fill="#003DC6" fill-opacity="0.05"/>
</g>
<g filter="url(#filter14_d)">
<path d="M225.294 284.348C229.467 283.79 232.003 281.586 233.044 277.613C233.949 274.191 234.924 272.463 241.575 267.313C248.84 261.655 251.495 256.028 250.479 248.444C248.721 235.315 236.982 228.315 220.498 230.523C208.289 232.158 199.935 237.909 197.229 244.714C196.362 246.853 196.082 249.074 196.383 251.323C197.039 256.612 201.115 259.634 206.678 258.889C210.644 258.358 213.888 255.953 215.126 252.273C216.258 248.98 218.328 247.212 221.573 246.778C225.334 246.274 228.503 248.405 228.959 251.805C229.533 256.094 228.085 258.205 221.345 263.473C216.593 267.145 214.075 271.049 214.782 276.332C215.525 281.877 219.782 285.087 225.294 284.348ZM228.924 309.1C234.951 308.293 239.279 303.027 238.495 297.169C237.717 291.363 232.156 287.423 226.129 288.23C220.102 289.037 215.824 294.295 216.602 300.101C217.387 305.959 222.897 309.907 228.924 309.1Z" fill="white"/>
</g>
<g filter="url(#filter15_d)">
<rect x="961.178" y="59.7715" width="90.8383" height="60.1497" rx="22" transform="rotate(-4.4048 961.178 59.7715)" fill="white"/>
<rect x="961.178" y="59.7715" width="90.8383" height="60.1497" rx="22" transform="rotate(-4.4048 961.178 59.7715)" fill="#003DC6" fill-opacity="0.15"/>
</g>
<g filter="url(#filter16_d)">
<path d="M1018.19 88.8274C1019.73 88.7085 1020.71 87.9523 1021.17 86.5156C1021.58 85.2782 1021.97 84.6642 1024.52 82.9114C1027.3 80.9848 1028.39 78.9745 1028.17 76.1699C1027.8 71.3149 1023.64 68.5031 1017.54 68.9727C1013.03 69.3204 1009.84 71.2585 1008.71 73.7002C1008.35 74.4675 1008.2 75.2767 1008.26 76.1084C1008.39 78.0634 1009.83 79.2567 1011.88 79.0982C1013.35 78.9852 1014.59 78.1697 1015.12 76.8447C1015.6 75.6595 1016.4 75.0534 1017.6 74.9609C1018.99 74.8538 1020.11 75.7015 1020.21 76.9588C1020.33 78.5448 1019.75 79.2896 1017.17 81.084C1015.35 82.3333 1014.35 83.7143 1014.5 85.6679C1014.65 87.7182 1016.15 88.9844 1018.19 88.8274ZM1019.01 97.9868C1021.24 97.8151 1022.94 95.9722 1022.77 93.8058C1022.6 91.6588 1020.64 90.0976 1018.42 90.2692C1016.19 90.4409 1014.51 92.2824 1014.67 94.4294C1014.84 96.5958 1016.78 98.1585 1019.01 97.9868Z" fill="white"/>
<path d="M1018.19 88.8274C1019.73 88.7085 1020.71 87.9523 1021.17 86.5156C1021.58 85.2782 1021.97 84.6642 1024.52 82.9114C1027.3 80.9848 1028.39 78.9745 1028.17 76.1699C1027.8 71.3149 1023.64 68.5031 1017.54 68.9727C1013.03 69.3204 1009.84 71.2585 1008.71 73.7002C1008.35 74.4675 1008.2 75.2767 1008.26 76.1084C1008.39 78.0634 1009.83 79.2567 1011.88 79.0982C1013.35 78.9852 1014.59 78.1697 1015.12 76.8447C1015.6 75.6595 1016.4 75.0534 1017.6 74.9609C1018.99 74.8538 1020.11 75.7015 1020.21 76.9588C1020.33 78.5448 1019.75 79.2896 1017.17 81.084C1015.35 82.3333 1014.35 83.7143 1014.5 85.6679C1014.65 87.7182 1016.15 88.9844 1018.19 88.8274ZM1019.01 97.9868C1021.24 97.8151 1022.94 95.9722 1022.77 93.8058C1022.6 91.6588 1020.64 90.0976 1018.42 90.2692C1016.19 90.4409 1014.51 92.2824 1014.67 94.4294C1014.84 96.5958 1016.78 98.1585 1019.01 97.9868Z" fill="#003DC6" fill-opacity="0.05"/>
<path d="M1010.41 94.7578C1010.58 96.9241 1008.88 98.7671 1006.65 98.9388C1004.42 99.1105 1002.48 97.5478 1002.32 95.3814C1002.15 93.2344 1003.83 91.3929 1006.06 91.2212C1008.29 91.0495 1010.25 92.6108 1010.41 94.7578Z" fill="white"/>
<path d="M1010.41 94.7578C1010.58 96.9241 1008.88 98.7671 1006.65 98.9388C1004.42 99.1105 1002.48 97.5478 1002.32 95.3814C1002.15 93.2344 1003.83 91.3929 1006.06 91.2212C1008.29 91.0495 1010.25 92.6108 1010.41 94.7578Z" fill="#003DC6" fill-opacity="0.05"/>
<path d="M997.945 95.7181C998.112 97.8844 996.414 99.7274 994.186 99.8991C991.957 100.071 990.016 98.5081 989.849 96.3417C989.684 94.1947 991.362 92.3532 993.591 92.1815C995.82 92.0098 997.78 93.5711 997.945 95.7181Z" fill="white"/>
<path d="M997.945 95.7181C998.112 97.8844 996.414 99.7274 994.186 99.8991C991.957 100.071 990.016 98.5081 989.849 96.3417C989.684 94.1947 991.362 92.3532 993.591 92.1815C995.82 92.0098 997.78 93.5711 997.945 95.7181Z" fill="#003DC6" fill-opacity="0.05"/>
</g>
<g filter="url(#filter17_d)">
<rect x="69.2734" y="94.165" width="74" height="49" rx="22" transform="rotate(7.47322 69.2734 94.165)" fill="white"/>
<rect x="69.2734" y="94.165" width="74" height="49" rx="22" transform="rotate(7.47322 69.2734 94.165)" fill="#003DC6" fill-opacity="0.15"/>
</g>
<g filter="url(#filter18_d)">
<path d="M109.851 126.888C111.101 127.052 112.006 126.613 112.617 125.545C113.146 124.626 113.562 124.203 115.887 123.233C118.429 122.163 119.636 120.744 119.934 118.472C120.45 114.539 117.602 111.599 112.663 110.951C109.006 110.471 106.142 111.482 104.828 113.239C104.411 113.79 104.157 114.41 104.068 115.084C103.845 116.664 104.788 117.856 106.455 118.074C107.643 118.23 108.768 117.788 109.413 116.821C109.997 115.957 110.734 115.607 111.706 115.735C112.833 115.883 113.583 116.746 113.449 117.765C113.281 119.049 112.697 119.547 110.338 120.544C108.677 121.235 107.644 122.167 107.437 123.75C107.219 125.411 108.2 126.671 109.851 126.888ZM108.969 134.327C110.775 134.564 112.437 133.379 112.667 131.624C112.895 129.885 111.595 128.312 109.789 128.075C107.984 127.838 106.337 129.025 106.109 130.764C105.878 132.519 107.163 134.09 108.969 134.327Z" fill="white"/>
<path d="M109.851 126.888C111.101 127.052 112.006 126.613 112.617 125.545C113.146 124.626 113.562 124.203 115.887 123.233C118.429 122.163 119.636 120.744 119.934 118.472C120.45 114.539 117.602 111.599 112.663 110.951C109.006 110.471 106.142 111.482 104.828 113.239C104.411 113.79 104.157 114.41 104.068 115.084C103.845 116.664 104.788 117.856 106.455 118.074C107.643 118.23 108.768 117.788 109.413 116.821C109.997 115.957 110.734 115.607 111.706 115.735C112.833 115.883 113.583 116.746 113.449 117.765C113.281 119.049 112.697 119.547 110.338 120.544C108.677 121.235 107.644 122.167 107.437 123.75C107.219 125.411 108.2 126.671 109.851 126.888ZM108.969 134.327C110.775 134.564 112.437 133.379 112.667 131.624C112.895 129.885 111.595 128.312 109.789 128.075C107.984 127.838 106.337 129.025 106.109 130.764C105.878 132.519 107.163 134.09 108.969 134.327Z" fill="#003DC6" fill-opacity="0.05"/>
<path d="M102.656 130.311C102.426 132.066 100.763 133.251 98.9578 133.014C97.1523 132.777 95.8672 131.206 96.0974 129.451C96.3255 127.712 97.9724 126.525 99.778 126.762C101.584 126.999 102.884 128.572 102.656 130.311Z" fill="white"/>
<path d="M102.656 130.311C102.426 132.066 100.763 133.251 98.9578 133.014C97.1523 132.777 95.8672 131.206 96.0974 129.451C96.3255 127.712 97.9724 126.525 99.778 126.762C101.584 126.999 102.884 128.572 102.656 130.311Z" fill="#003DC6" fill-opacity="0.05"/>
<path d="M92.5569 128.987C92.3267 130.742 90.6644 131.926 88.8588 131.689C87.0533 131.452 85.7682 129.881 85.9984 128.126C86.2265 126.387 87.8734 125.2 89.679 125.437C91.4845 125.674 92.7851 127.247 92.5569 128.987Z" fill="white"/>
<path d="M92.5569 128.987C92.3267 130.742 90.6644 131.926 88.8588 131.689C87.0533 131.452 85.7682 129.881 85.9984 128.126C86.2265 126.387 87.8734 125.2 89.679 125.437C91.4845 125.674 92.7851 127.247 92.5569 128.987Z" fill="#003DC6" fill-opacity="0.05"/>
</g>
<defs>
<filter id="filter0_d" x="814.686" y="207.75" width="205.436" height="168.48" filterUnits="userSpaceOnUse" color-interpolation-filters="sRGB">
<feFlood flood-opacity="0" result="BackgroundImageFix"/>
<feColorMatrix in="SourceAlpha" type="matrix" values="0 0 0 0 0 0 0 0 0 0 0 0 0 0 0 0 0 0 127 0"/>
<feOffset dx="4"/>
<feGaussianBlur stdDeviation="2"/>
<feColorMatrix type="matrix" values="0 0 0 0 0 0 0 0 0 0.239216 0 0 0 0 0.776471 0 0 0 0.15 0"/>
<feBlend mode="normal" in2="BackgroundImageFix" result="effect1_dropShadow"/>
<feBlend mode="normal" in="SourceGraphic" in2="effect1_dropShadow" result="shape"/>
</filter>
<filter id="filter1_d" x="875.402" y="264.359" width="28.9347" height="28.9343" filterUnits="userSpaceOnUse" color-interpolation-filters="sRGB">
<feFlood flood-opacity="0" result="BackgroundImageFix"/>
<feColorMatrix in="SourceAlpha" type="matrix" values="0 0 0 0 0 0 0 0 0 0 0 0 0 0 0 0 0 0 127 0"/>
<feOffset dx="4"/>
<feGaussianBlur stdDeviation="2"/>
<feColorMatrix type="matrix" values="0 0 0 0 0 0 0 0 0 0.239216 0 0 0 0 0.776471 0 0 0 0.1 0"/>
<feBlend mode="normal" in2="BackgroundImageFix" result="effect1_dropShadow"/>
<feBlend mode="normal" in="SourceGraphic" in2="effect1_dropShadow" result="shape"/>
</filter>
<filter id="filter2_d" x="902.888" y="266.127" width="28.9347" height="28.9343" filterUnits="userSpaceOnUse" color-interpolation-filters="sRGB">
<feFlood flood-opacity="0" result="BackgroundImageFix"/>
<feColorMatrix in="SourceAlpha" type="matrix" values="0 0 0 0 0 0 0 0 0 0 0 0 0 0 0 0 0 0 127 0"/>
<feOffset dx="4"/>
<feGaussianBlur stdDeviation="2"/>
<feColorMatrix type="matrix" values="0 0 0 0 0 0 0 0 0 0.239216 0 0 0 0 0.776471 0 0 0 0.1 0"/>
<feBlend mode="normal" in2="BackgroundImageFix" result="effect1_dropShadow"/>
<feBlend mode="normal" in="SourceGraphic" in2="effect1_dropShadow" result="shape"/>
</filter>
<filter id="filter3_d" x="930.375" y="267.895" width="28.9347" height="28.9343" filterUnits="userSpaceOnUse" color-interpolation-filters="sRGB">
<feFlood flood-opacity="0" result="BackgroundImageFix"/>
<feColorMatrix in="SourceAlpha" type="matrix" values="0 0 0 0 0 0 0 0 0 0 0 0 0 0 0 0 0 0 127 0"/>
<feOffset dx="4"/>
<feGaussianBlur stdDeviation="2"/>
<feColorMatrix type="matrix" values="0 0 0 0 0 0 0 0 0 0.239216 0 0 0 0 0.776471 0 0 0 0.1 0"/>
<feBlend mode="normal" in2="BackgroundImageFix" result="effect1_dropShadow"/>
<feBlend mode="normal" in="SourceGraphic" in2="effect1_dropShadow" result="shape"/>
</filter>
<filter id="filter4_d" x="273.197" y="167.266" width="315.287" height="232.373" filterUnits="userSpaceOnUse" color-interpolation-filters="sRGB">
<feFlood flood-opacity="0" result="BackgroundImageFix"/>
<feColorMatrix in="SourceAlpha" type="matrix" values="0 0 0 0 0 0 0 0 0 0 0 0 0 0 0 0 0 0 127 0"/>
<feOffset dx="4"/>
<feGaussianBlur stdDeviation="2"/>
<feColorMatrix type="matrix" values="0 0 0 0 0 0 0 0 0 0.239216 0 0 0 0 0.776471 0 0 0 0.3 0"/>
<feBlend mode="normal" in2="BackgroundImageFix" result="effect1_dropShadow"/>
<feBlend mode="normal" in="SourceGraphic" in2="effect1_dropShadow" result="shape"/>
</filter>
<filter id="filter5_d" x="396.679" y="216.102" width="87.6297" height="124.148" filterUnits="userSpaceOnUse" color-interpolation-filters="sRGB">
<feFlood flood-opacity="0" result="BackgroundImageFix"/>
<feColorMatrix in="SourceAlpha" type="matrix" values="0 0 0 0 0 0 0 0 0 0 0 0 0 0 0 0 0 0 127 0"/>
<feOffset dx="4"/>
<feGaussianBlur stdDeviation="2"/>
<feColorMatrix type="matrix" values="0 0 0 0 0 0 0 0 0 0.239216 0 0 0 0 0.776471 0 0 0 0.15 0"/>
<feBlend mode="normal" in2="BackgroundImageFix" result="effect1_dropShadow"/>
<feBlend mode="normal" in="SourceGraphic" in2="effect1_dropShadow" result="shape"/>
</filter>
<filter id="filter6_d" x="482.784" y="5.78418" width="383.168" height="279.739" filterUnits="userSpaceOnUse" color-interpolation-filters="sRGB">
<feFlood flood-opacity="0" result="BackgroundImageFix"/>
<feColorMatrix in="SourceAlpha" type="matrix" values="0 0 0 0 0 0 0 0 0 0 0 0 0 0 0 0 0 0 127 0"/>
<feOffset dx="4"/>
<feGaussianBlur stdDeviation="2"/>
<feColorMatrix type="matrix" values="0 0 0 0 0 0 0 0 0 0.239216 0 0 0 0 0.776471 0 0 0 0.4 0"/>
<feBlend mode="normal" in2="BackgroundImageFix" result="effect1_dropShadow"/>
<feBlend mode="normal" in="SourceGraphic" in2="effect1_dropShadow" result="shape"/>
</filter>
<filter id="filter7_d" x="609.763" y="66.4348" width="112.785" height="158.191" filterUnits="userSpaceOnUse" color-interpolation-filters="sRGB">
<feFlood flood-opacity="0" result="BackgroundImageFix"/>
<feColorMatrix in="SourceAlpha" type="matrix" values="0 0 0 0 0 0 0 0 0 0 0 0 0 0 0 0 0 0 127 0"/>
<feOffset dx="4"/>
<feGaussianBlur stdDeviation="2"/>
<feColorMatrix type="matrix" values="0 0 0 0 0 0 0 0 0 0.239216 0 0 0 0 0.776471 0 0 0 0.3 0"/>
<feBlend mode="normal" in2="BackgroundImageFix" result="effect1_dropShadow"/>
<feBlend mode="normal" in="SourceGraphic" in2="effect1_dropShadow" result="shape"/>
</filter>
<filter id="filter8_d" x="265.207" y="22.0964" width="138.9" height="103.034" filterUnits="userSpaceOnUse" color-interpolation-filters="sRGB">
<feFlood flood-opacity="0" result="BackgroundImageFix"/>
<feColorMatrix in="SourceAlpha" type="matrix" values="0 0 0 0 0 0 0 0 0 0 0 0 0 0 0 0 0 0 127 0"/>
<feOffset dx="4"/>
<feGaussianBlur stdDeviation="2"/>
<feColorMatrix type="matrix" values="0 0 0 0 0 0 0 0 0 0.239216 0 0 0 0 0.776471 0 0 0 0.5 0"/>
<feBlend mode="normal" in2="BackgroundImageFix" result="effect1_dropShadow"/>
<feBlend mode="normal" in="SourceGraphic" in2="effect1_dropShadow" result="shape"/>
</filter>
<filter id="filter9_d" x="306.502" y="59.1938" width="58.5451" height="27.7324" filterUnits="userSpaceOnUse" color-interpolation-filters="sRGB">
<feFlood flood-opacity="0" result="BackgroundImageFix"/>
<feColorMatrix in="SourceAlpha" type="matrix" values="0 0 0 0 0 0 0 0 0 0 0 0 0 0 0 0 0 0 127 0"/>
<feOffset dx="4"/>
<feGaussianBlur stdDeviation="2"/>
<feColorMatrix type="matrix" values="0 0 0 0 0 0 0 0 0 0.239216 0 0 0 0 0.776471 0 0 0 0.1 0"/>
<feBlend mode="normal" in2="BackgroundImageFix" result="effect1_dropShadow"/>
<feBlend mode="normal" in="SourceGraphic" in2="effect1_dropShadow" result="shape"/>
</filter>
<filter id="filter10_d" x="306.502" y="59.1938" width="22.043" height="22.0417" filterUnits="userSpaceOnUse" color-interpolation-filters="sRGB">
<feFlood flood-opacity="0" result="BackgroundImageFix"/>
<feColorMatrix in="SourceAlpha" type="matrix" values="0 0 0 0 0 0 0 0 0 0 0 0 0 0 0 0 0 0 127 0"/>
<feOffset dx="4"/>
<feGaussianBlur stdDeviation="2"/>
<feColorMatrix type="matrix" values="0 0 0 0 0 0 0 0 0 0.239216 0 0 0 0 0.776471 0 0 0 0.15 0"/>
<feBlend mode="normal" in2="BackgroundImageFix" result="effect1_dropShadow"/>
<feBlend mode="normal" in="SourceGraphic" in2="effect1_dropShadow" result="shape"/>
</filter>
<filter id="filter11_d" x="324.753" y="62.0391" width="22.043" height="22.0417" filterUnits="userSpaceOnUse" color-interpolation-filters="sRGB">
<feFlood flood-opacity="0" result="BackgroundImageFix"/>
<feColorMatrix in="SourceAlpha" type="matrix" values="0 0 0 0 0 0 0 0 0 0 0 0 0 0 0 0 0 0 127 0"/>
<feOffset dx="4"/>
<feGaussianBlur stdDeviation="2"/>
<feColorMatrix type="matrix" values="0 0 0 0 0 0 0 0 0 0.239216 0 0 0 0 0.776471 0 0 0 0.15 0"/>
<feBlend mode="normal" in2="BackgroundImageFix" result="effect1_dropShadow"/>
<feBlend mode="normal" in="SourceGraphic" in2="effect1_dropShadow" result="shape"/>
</filter>
<filter id="filter12_d" x="343.005" y="64.8845" width="22.043" height="22.0417" filterUnits="userSpaceOnUse" color-interpolation-filters="sRGB">
<feFlood flood-opacity="0" result="BackgroundImageFix"/>
<feColorMatrix in="SourceAlpha" type="matrix" values="0 0 0 0 0 0 0 0 0 0 0 0 0 0 0 0 0 0 127 0"/>
<feOffset dx="4"/>
<feGaussianBlur stdDeviation="2"/>
<feColorMatrix type="matrix" values="0 0 0 0 0 0 0 0 0 0.239216 0 0 0 0 0.776471 0 0 0 0.15 0"/>
<feBlend mode="normal" in2="BackgroundImageFix" result="effect1_dropShadow"/>
<feBlend mode="normal" in="SourceGraphic" in2="effect1_dropShadow" result="shape"/>
</filter>
<filter id="filter13_d" x="129.848" y="195.583" width="204.722" height="148.425" filterUnits="userSpaceOnUse" color-interpolation-filters="sRGB">
<feFlood flood-opacity="0" result="BackgroundImageFix"/>
<feColorMatrix in="SourceAlpha" type="matrix" values="0 0 0 0 0 0 0 0 0 0 0 0 0 0 0 0 0 0 127 0"/>
<feOffset dx="4"/>
<feGaussianBlur stdDeviation="2"/>
<feColorMatrix type="matrix" values="0 0 0 0 0 0 0 0 0 0.239216 0 0 0 0 0.776471 0 0 0 0.15 0"/>
<feBlend mode="normal" in2="BackgroundImageFix" result="effect1_dropShadow"/>
<feBlend mode="normal" in="SourceGraphic" in2="effect1_dropShadow" result="shape"/>
</filter>
<filter id="filter14_d" x="196.266" y="226.121" width="62.4215" height="87.0839" filterUnits="userSpaceOnUse" color-interpolation-filters="sRGB">
<feFlood flood-opacity="0" result="BackgroundImageFix"/>
<feColorMatrix in="SourceAlpha" type="matrix" values="0 0 0 0 0 0 0 0 0 0 0 0 0 0 0 0 0 0 127 0"/>
<feOffset dx="4"/>
<feGaussianBlur stdDeviation="2"/>
<feColorMatrix type="matrix" values="0 0 0 0 0 0 0 0 0 0.239216 0 0 0 0 0.776471 0 0 0 0.1 0"/>
<feBlend mode="normal" in2="BackgroundImageFix" result="effect1_dropShadow"/>
<feBlend mode="normal" in="SourceGraphic" in2="effect1_dropShadow" result="shape"/>
</filter>
<filter id="filter15_d" x="962.905" y="50.5225" width="99.7347" height="71.4937" filterUnits="userSpaceOnUse" color-interpolation-filters="sRGB">
<feFlood flood-opacity="0" result="BackgroundImageFix"/>
<feColorMatrix in="SourceAlpha" type="matrix" values="0 0 0 0 0 0 0 0 0 0 0 0 0 0 0 0 0 0 127 0"/>
<feOffset dx="4"/>
<feGaussianBlur stdDeviation="2"/>
<feColorMatrix type="matrix" values="0 0 0 0 0 0 0 0 0 0.239216 0 0 0 0 0.776471 0 0 0 0.25 0"/>
<feBlend mode="normal" in2="BackgroundImageFix" result="effect1_dropShadow"/>
<feBlend mode="normal" in="SourceGraphic" in2="effect1_dropShadow" result="shape"/>
</filter>
<filter id="filter16_d" x="989.838" y="64.9219" width="46.3636" height="38.9902" filterUnits="userSpaceOnUse" color-interpolation-filters="sRGB">
<feFlood flood-opacity="0" result="BackgroundImageFix"/>
<feColorMatrix in="SourceAlpha" type="matrix" values="0 0 0 0 0 0 0 0 0 0 0 0 0 0 0 0 0 0 127 0"/>
<feOffset dx="4"/>
<feGaussianBlur stdDeviation="2"/>
<feColorMatrix type="matrix" values="0 0 0 0 0 0 0 0 0 0.239216 0 0 0 0 0.776471 0 0 0 0.1 0"/>
<feBlend mode="normal" in2="BackgroundImageFix" result="effect1_dropShadow"/>
<feBlend mode="normal" in="SourceGraphic" in2="effect1_dropShadow" result="shape"/>
</filter>
<filter id="filter17_d" x="65.5747" y="92.8394" width="82.3959" height="60.8598" filterUnits="userSpaceOnUse" color-interpolation-filters="sRGB">
<feFlood flood-opacity="0" result="BackgroundImageFix"/>
<feColorMatrix in="SourceAlpha" type="matrix" values="0 0 0 0 0 0 0 0 0 0 0 0 0 0 0 0 0 0 127 0"/>
<feOffset dx="4"/>
<feGaussianBlur stdDeviation="2"/>
<feColorMatrix type="matrix" values="0 0 0 0 0 0 0 0 0 0.239216 0 0 0 0 0.776471 0 0 0 0.25 0"/>
<feBlend mode="normal" in2="BackgroundImageFix" result="effect1_dropShadow"/>
<feBlend mode="normal" in="SourceGraphic" in2="effect1_dropShadow" result="shape"/>
</filter>
<filter id="filter18_d" x="85.9717" y="106.832" width="42.0219" height="31.5253" filterUnits="userSpaceOnUse" color-interpolation-filters="sRGB">
<feFlood flood-opacity="0" result="BackgroundImageFix"/>
<feColorMatrix in="SourceAlpha" type="matrix" values="0 0 0 0 0 0 0 0 0 0 0 0 0 0 0 0 0 0 127 0"/>
<feOffset dx="4"/>
<feGaussianBlur stdDeviation="2"/>
<feColorMatrix type="matrix" values="0 0 0 0 0 0 0 0 0 0.239216 0 0 0 0 0.776471 0 0 0 0.1 0"/>
<feBlend mode="normal" in2="BackgroundImageFix" result="effect1_dropShadow"/>
<feBlend mode="normal" in="SourceGraphic" in2="effect1_dropShadow" result="shape"/>
</filter>
</defs>
</svg>
