<svg width="1128" height="408" viewBox="0 0 1128 408" fill="none" xmlns="http://www.w3.org/2000/svg">
<g clip-path="url(#clip0)">
<g filter="url(#filter0_i)">
<path fill-rule="evenodd" clip-rule="evenodd" d="M456.425 1.62875C456.408 0.729574 455.679 0 454.779 0H24.0213C10.7547 0 0 10.7452 0 24C0 29.2114 4.41248 33.3357 9.61696 32.9888L454.89 3.31187C455.769 3.25325 456.442 2.51007 456.425 1.62875ZM463.972 39.1801C463.131 37.0656 460.745 35.9802 458.633 36.828L7.53244 217.933C2.98178 219.759 0 224.167 0 229.067V350.736C0 360.332 10.715 366.047 18.695 360.706L469.664 58.8889C471.465 57.6837 471.971 55.2677 470.883 53.3942C468.246 48.8562 465.932 44.1077 463.972 39.1801ZM494.125 81.2489C492.406 79.7801 489.808 79.9229 488.331 81.6357L224.006 388.167C217.299 395.945 222.829 408 233.105 408H362.057C366.711 408 370.946 405.314 372.926 401.106L514.847 99.5511C515.776 97.5769 514.948 95.229 513.027 94.1946C506.258 90.5499 499.925 86.2021 494.125 81.2489ZM537.463 103.706C535.295 103.156 533.049 104.4 532.456 106.557L453.725 392.82C451.624 400.459 457.377 408 465.306 408H669.186C677.202 408 682.968 400.304 680.71 392.619L596.536 106.226C595.909 104.092 593.663 102.887 591.512 103.454C582.731 105.767 573.509 107 564 107C554.842 107 545.951 105.857 537.463 103.706ZM615.906 93.6866C613.984 94.7459 613.182 97.1209 614.151 99.0896L762.879 401.295C764.899 405.4 769.079 408 773.657 408H893.893C904.169 408 909.699 395.945 902.992 388.167L639.09 82.1264C637.62 80.422 635.039 80.2711 633.318 81.7211C627.939 86.2525 622.109 90.2665 615.906 93.6866ZM656.846 53.858C655.744 55.7329 656.247 58.1612 658.054 59.3708L1109.3 361.376C1117.28 366.717 1128 361.003 1128 351.406V229.469C1128 224.57 1125.02 220.162 1120.47 218.335L669.228 37.1746C667.122 36.3289 664.741 37.407 663.895 39.5135C661.896 44.4898 659.536 49.2821 656.846 53.858ZM671.574 1.66217C671.556 2.56195 672.243 3.32093 673.141 3.38078L1118.32 33.0512C1123.56 33.4005 1128 29.2476 1128 24C1128 10.7452 1117.25 0 1103.98 0H673.254C672.336 0 671.592 0.744574 671.574 1.66217Z" fill="white"/>
<path fill-rule="evenodd" clip-rule="evenodd" d="M456.425 1.62875C456.408 0.729574 455.679 0 454.779 0H24.0213C10.7547 0 0 10.7452 0 24C0 29.2114 4.41248 33.3357 9.61696 32.9888L454.89 3.31187C455.769 3.25325 456.442 2.51007 456.425 1.62875ZM463.972 39.1801C463.131 37.0656 460.745 35.9802 458.633 36.828L7.53244 217.933C2.98178 219.759 0 224.167 0 229.067V350.736C0 360.332 10.715 366.047 18.695 360.706L469.664 58.8889C471.465 57.6837 471.971 55.2677 470.883 53.3942C468.246 48.8562 465.932 44.1077 463.972 39.1801ZM494.125 81.2489C492.406 79.7801 489.808 79.9229 488.331 81.6357L224.006 388.167C217.299 395.945 222.829 408 233.105 408H362.057C366.711 408 370.946 405.314 372.926 401.106L514.847 99.5511C515.776 97.5769 514.948 95.229 513.027 94.1946C506.258 90.5499 499.925 86.2021 494.125 81.2489ZM537.463 103.706C535.295 103.156 533.049 104.4 532.456 106.557L453.725 392.82C451.624 400.459 457.377 408 465.306 408H669.186C677.202 408 682.968 400.304 680.71 392.619L596.536 106.226C595.909 104.092 593.663 102.887 591.512 103.454C582.731 105.767 573.509 107 564 107C554.842 107 545.951 105.857 537.463 103.706ZM615.906 93.6866C613.984 94.7459 613.182 97.1209 614.151 99.0896L762.879 401.295C764.899 405.4 769.079 408 773.657 408H893.893C904.169 408 909.699 395.945 902.992 388.167L639.09 82.1264C637.62 80.422 635.039 80.2711 633.318 81.7211C627.939 86.2525 622.109 90.2665 615.906 93.6866ZM656.846 53.858C655.744 55.7329 656.247 58.1612 658.054 59.3708L1109.3 361.376C1117.28 366.717 1128 361.003 1128 351.406V229.469C1128 224.57 1125.02 220.162 1120.47 218.335L669.228 37.1746C667.122 36.3289 664.741 37.407 663.895 39.5135C661.896 44.4898 659.536 49.2821 656.846 53.858ZM671.574 1.66217C671.556 2.56195 672.243 3.32093 673.141 3.38078L1118.32 33.0512C1123.56 33.4005 1128 29.2476 1128 24C1128 10.7452 1117.25 0 1103.98 0H673.254C672.336 0 671.592 0.744574 671.574 1.66217Z" fill="#003DC6" fill-opacity="0.05"/>
</g>
<mask id="mask0" mask-type="alpha" maskUnits="userSpaceOnUse" x="1" y="-108" width="1127" height="516">
<path d="M671.999 0C672 -0.16658 672 -0.333244 672 -0.5C672 -59.8706 623.871 -108 564.5 -108C505.129 -108 457 -59.8706 457 -0.5C457 -0.333244 457 -0.16658 457.001 0H25C11.7452 0 1 10.7452 1 24C1 29.2114 5.40857 33.3357 10.6084 32.9888L457.063 3.20673C457.443 14.4156 459.538 25.1893 463.096 35.2732L8.52576 217.932C3.97914 219.759 1 224.167 1 229.067V350.736C1 360.332 11.7055 366.047 19.6784 360.706L473.48 56.7238C478.545 64.7643 484.647 72.0865 491.597 78.5032L224.807 388.167C218.106 395.945 223.632 408 233.898 408H362.736C367.386 408 371.617 405.314 373.595 401.106L517.063 95.9944C522.488 98.6661 528.17 100.894 534.063 102.63L454.323 392.82C452.224 400.459 457.972 408 465.894 408H669.592C677.602 408 683.363 400.304 681.106 392.619L595.869 102.351C601.763 100.556 607.442 98.2677 612.859 95.5349L763.202 401.295C765.221 405.4 769.397 408 773.971 408H894.101C904.367 408 909.893 395.945 903.192 388.167L636.844 79.0159C643.89 72.602 650.079 65.2644 655.222 57.1945L1109.32 361.376C1117.29 366.717 1128 361.003 1128 351.406V229.469C1128 224.57 1125.02 220.162 1120.47 218.335L665.779 35.6253C669.405 25.4602 671.545 14.5889 671.935 3.27341L1118.32 33.0512C1123.56 33.4005 1128 29.2476 1128 24C1128 10.7452 1117.25 0 1104 0H671.999Z" fill="white"/>
</mask>
<g mask="url(#mask0)">
<mask id="mask1" mask-type="alpha" maskUnits="userSpaceOnUse" x="416" y="57" width="545" height="351">
<rect x="416" y="57" width="545" height="351" fill="url(#paint0_linear)"/>
</mask>
<g mask="url(#mask1)">
<g opacity="0.3" filter="url(#filter1_f)">
<path d="M564.5 62C578.283 278 778 408 930 408H564.5V62Z" fill="#003DC6"/>
</g>
</g>
<path d="M564.5 62C578.283 278 770 408 922 408H207C359 408 550.717 278 564.5 62Z" fill="white"/>
<path d="M564.5 62C578.283 278 770 408 922 408H207C359 408 550.717 278 564.5 62Z" fill="#003DC6" fill-opacity="0.2"/>
<mask id="mask2" mask-type="alpha" maskUnits="userSpaceOnUse" x="416" y="57" width="545" height="351">
<rect x="416" y="57" width="545" height="351" fill="url(#paint1_linear)"/>
</mask>
<g mask="url(#mask2)">
<g opacity="0.2" filter="url(#filter2_f)">
<path d="M564.5 62C572.235 206 640 364 760 408H564.5V62Z" fill="#003DC6"/>
</g>
</g>
<path d="M564.5 62C572.235 206 634 364 754 408H375C495 364 556.765 206 564.5 62Z" fill="white"/>
<path d="M564.5 62C572.235 206 634 364 754 408H375C495 364 556.765 206 564.5 62Z" fill="#003DC6" fill-opacity="0.15"/>
<mask id="mask3" mask-type="alpha" maskUnits="userSpaceOnUse" x="416" y="57" width="545" height="351">
<rect x="416" y="57" width="545" height="351" fill="url(#paint2_linear)"/>
</mask>
<g mask="url(#mask3)">
<g filter="url(#filter3_f)">
<path d="M564.5 62C568.468 190 575 324 663 408H564.5V62Z" fill="#003DC6" fill-opacity="0.2"/>
</g>
</g>
<path d="M564.5 62C568.468 190 570 324 658 408H471C559 324 560.532 190 564.5 62Z" fill="white"/>
<path d="M564.5 62C568.468 190 570 324 658 408H471C559 324 560.532 190 564.5 62Z" fill="#003DC6" fill-opacity="0.1"/>
<path d="M564.5 25L578 73L564.5 62L551 73L564.5 25Z" fill="#003DC6"/>
<path d="M564.5 25V53L551 73L564.5 25Z" fill="white" fill-opacity="0.5"/>
<path opacity="0.2" d="M564.5 53L578 73L564.5 62L551 73L564.5 53Z" fill="white"/>
</g>
</g>
<defs>
<filter id="filter0_i" x="0" y="0" width="1132" height="408" filterUnits="userSpaceOnUse" color-interpolation-filters="sRGB">
<feFlood flood-opacity="0" result="BackgroundImageFix"/>
<feBlend mode="normal" in="SourceGraphic" in2="BackgroundImageFix" result="shape"/>
<feColorMatrix in="SourceAlpha" type="matrix" values="0 0 0 0 0 0 0 0 0 0 0 0 0 0 0 0 0 0 127 0" result="hardAlpha"/>
<feOffset dx="4"/>
<feGaussianBlur stdDeviation="2"/>
<feComposite in2="hardAlpha" operator="arithmetic" k2="-1" k3="1"/>
<feColorMatrix type="matrix" values="0 0 0 0 0 0 0 0 0 0.239216 0 0 0 0 0.776471 0 0 0 0.1 0"/>
<feBlend mode="normal" in2="shape" result="effect1_innerShadow"/>
</filter>
<filter id="filter1_f" x="558.5" y="56" width="377.5" height="358" filterUnits="userSpaceOnUse" color-interpolation-filters="sRGB">
<feFlood flood-opacity="0" result="BackgroundImageFix"/>
<feBlend mode="normal" in="SourceGraphic" in2="BackgroundImageFix" result="shape"/>
<feGaussianBlur stdDeviation="3" result="effect1_foregroundBlur"/>
</filter>
<filter id="filter2_f" x="558.5" y="56" width="207.5" height="358" filterUnits="userSpaceOnUse" color-interpolation-filters="sRGB">
<feFlood flood-opacity="0" result="BackgroundImageFix"/>
<feBlend mode="normal" in="SourceGraphic" in2="BackgroundImageFix" result="shape"/>
<feGaussianBlur stdDeviation="3" result="effect1_foregroundBlur"/>
</filter>
<filter id="filter3_f" x="558.5" y="56" width="110.5" height="358" filterUnits="userSpaceOnUse" color-interpolation-filters="sRGB">
<feFlood flood-opacity="0" result="BackgroundImageFix"/>
<feBlend mode="normal" in="SourceGraphic" in2="BackgroundImageFix" result="shape"/>
<feGaussianBlur stdDeviation="3" result="effect1_foregroundBlur"/>
</filter>
<linearGradient id="paint0_linear" x1="688.5" y1="57" x2="688.5" y2="408" gradientUnits="userSpaceOnUse">
<stop stop-opacity="0"/>
<stop offset="0.494792"/>
</linearGradient>
<linearGradient id="paint1_linear" x1="688.5" y1="57" x2="688.5" y2="408" gradientUnits="userSpaceOnUse">
<stop stop-opacity="0"/>
<stop offset="0.494792"/>
</linearGradient>
<linearGradient id="paint2_linear" x1="688.5" y1="57" x2="688.5" y2="408" gradientUnits="userSpaceOnUse">
<stop stop-opacity="0"/>
<stop offset="0.494792"/>
</linearGradient>
<clipPath id="clip0">
<path d="M0 0H1128V408H0V0Z" fill="white"/>
</clipPath>
</defs>
</svg>
