<svg width="32" height="32" viewBox="0 0 32 32" fill="none" xmlns="http://www.w3.org/2000/svg">
<path fill-rule="evenodd" clip-rule="evenodd" d="M22.5563 4.17157C21.8062 3.42143 20.7888 3 19.7279 3L12.2721 3C11.2112 3 10.1938 3.42143 9.44365 4.17157L4.17157 9.44365C3.42143 10.1938 3 11.2112 3 12.2721L3 19.7279C3 20.7888 3.42143 21.8062 4.17157 22.5563L9.44365 27.8284C10.1938 28.5786 11.2112 29 12.2721 29L19.7279 29C20.7888 29 21.8062 28.5786 22.5563 27.8284L27.8284 22.5563C28.5786 21.8062 29 20.7888 29 19.7279L29 12.2721C29 11.2112 28.5786 10.1938 27.8284 9.44365L22.5563 4.17157ZM10 14C9.44773 14 9.00001 14.4477 9.00001 15V17C9.00001 17.5523 9.44773 18 10 18H22C22.5523 18 23 17.5523 23 17V15C23 14.4477 22.5523 14 22 14H10Z" fill="#DC3632"/>
</svg>
