<svg width="128" height="32" viewBox="0 0 128 32" fill="none" xmlns="http://www.w3.org/2000/svg">
<path d="M91.4518 17.9242C91.4518 15.3913 92.7059 14.1084 94.794 14.1084C95.5028 14.1087 96.1997 14.2915 96.8214 14.6398L98.0501 10.3457C96.9214 9.93934 95.7329 9.73403 94.5367 9.73872C89.5861 9.73872 86.4314 12.5326 86.4314 18.2166V27.6048H91.4495L91.4518 17.9242ZM59.276 4C58.724 4.02455 58.1912 4.21563 57.745 4.54914C57.2988 4.8826 56.9592 5.34363 56.7688 5.87413C56.5785 6.40459 56.5455 6.98082 56.6751 7.5302C56.8042 8.07958 57.0898 8.57752 57.4953 8.96134C57.9009 9.34522 58.4088 9.59771 58.9546 9.68719C59.5003 9.77662 60.0598 9.69892 60.5625 9.46393C61.0652 9.22895 61.4885 8.84713 61.7792 8.36664C62.07 7.8861 62.2154 7.32836 62.1968 6.76358C62.1963 5.18408 61.025 4.00269 59.276 4.00269V4ZM56.7564 27.6021H61.7749V12.1717H56.7569L56.7564 27.6021ZM125.71 4.00269H120.697V27.6048H125.71V4.00269ZM73.5395 27.9082C71.0252 27.9384 68.5449 27.3168 66.3295 26.1013V4.00269H71.3323V10.4333C72.3955 9.9123 73.563 9.65345 74.7419 9.6776C79.5935 9.6776 83.5914 13.2963 83.5914 18.8522C83.6172 24.2167 79.9737 27.8939 73.5395 27.887V27.9082ZM71.3323 23.444C72.077 23.6211 72.8341 23.7404 73.5964 23.8006C76.4594 23.9866 78.5212 21.9059 78.5212 18.8511C78.5212 15.5146 76.3814 13.8857 73.8729 13.8857C72.9646 13.8759 72.076 14.1569 71.3323 14.6893V23.444ZM52.5916 19.5367V4.00269H47.3865V19.8348C47.3865 22.3625 46.2946 23.6454 44.206 23.6454C43.0338 23.6263 41.9141 23.1438 41.0824 22.2992L39 26.4037C40.6328 27.4821 42.5431 28.0373 44.4868 27.9981C49.7755 28.0199 52.5916 25.226 52.5916 19.5367ZM99.1353 18.781C99.1353 13.4913 103.091 9.67545 108.365 9.67545C113.44 9.67545 117.365 13.1613 117.365 18.8447C117.365 19.2439 117.303 19.8013 117.266 20.2265H104.169C104.648 22.43 106.48 23.7761 109.12 23.7761C109.919 23.8086 110.716 23.6739 111.463 23.3801C112.209 23.0864 112.889 22.6399 113.461 22.0681L116.126 25.0272C114.518 26.9006 112.108 27.8849 108.989 27.8849C103.008 27.8849 99.1191 24.0371 99.1191 18.7794L99.1353 18.781ZM104.117 17.2397H112.638C112.469 16.2097 111.948 15.2743 111.168 14.5997C110.388 13.9252 109.4 13.555 108.378 13.555C107.356 13.555 106.367 13.9252 105.587 14.5997C104.807 15.2743 104.286 16.2097 104.117 17.2397Z" fill="#081E39"/>
<circle cx="15" cy="16" r="14" fill="white"/>
<path d="M13.312 2.10074C6.37597 2.93428 1 8.83933 1 16C1 16.2392 1.006 16.4769 1.01785 16.7132H1.024C1.024 16.7603 1.02455 16.8073 1.02563 16.8542C1.04135 17.1153 1.06422 17.3745 1.09405 17.6315C1.54115 20.5358 4.0757 22.784 7.168 22.784C10.5794 22.784 13.312 20.0479 13.312 16.7132V2.10074Z" fill="#003DC6"/>
<path d="M6.48574 27.1143C8.84486 28.9243 11.7968 30 15 30C22.732 30 29 23.732 29 16C29 13.7987 28.4919 11.7161 27.5867 9.86294C26.185 11.9415 23.8167 13.312 21.12 13.312C19.8775 13.312 18.7047 13.0211 17.664 12.5039V16.7132C17.664 22.4876 12.9466 27.136 7.168 27.136C6.93884 27.136 6.71134 27.1287 6.48574 27.1143Z" fill="#003DC6"/>
<path d="M24.5626 5.77468C24.407 7.57177 22.9124 8.96002 21.12 8.96002C19.2257 8.96002 17.664 7.40937 17.664 5.46426V2.25316C20.3021 2.76139 22.6766 4.01018 24.5626 5.77468Z" fill="#003DC6"/>
</svg>
