<svg width="48" height="32" viewBox="0 0 48 32" fill="none" xmlns="http://www.w3.org/2000/svg">
<path d="M30.2329 5.5752H17.4697V26.4212H30.2329V5.5752Z" fill="#FF5F00"/>
<path d="M18.7846 16.0001C18.783 13.9929 19.2381 12.0115 20.1153 10.206C20.9925 8.40058 22.2689 6.81831 23.8479 5.57897C21.8922 4.04202 19.5436 3.08628 17.0704 2.82099C14.5973 2.55569 12.0994 2.99155 9.86221 4.07873C7.62505 5.16592 5.73888 6.86058 4.41929 8.96903C3.09969 11.0775 2.3999 13.5146 2.3999 16.002C2.3999 18.4893 3.09969 20.9265 4.41929 23.0349C5.73888 25.1434 7.62505 26.838 9.86221 27.9252C12.0994 29.0124 14.5973 29.4483 17.0704 29.183C19.5436 28.9177 21.8922 27.962 23.8479 26.425C22.2684 25.1853 20.9917 23.6024 20.1145 21.7963C19.2372 19.9901 18.7825 18.0081 18.7846 16.0001Z" fill="#EB001B"/>
<path d="M44.0309 24.2152V23.7881H44.2151V23.6997H43.7769V23.7881H43.9499V24.2152H44.0309ZM44.8816 24.2152V23.6997H44.749L44.5943 24.0679L44.4397 23.6997H44.3071V24.2152H44.4029V23.8249L44.5465 24.16H44.6459L44.7895 23.8249V24.2152H44.8816Z" fill="#F79E1B"/>
<path d="M45.2976 16C45.2975 18.4875 44.5976 20.9248 43.2778 23.0334C41.9579 25.1419 40.0715 26.8365 37.834 27.9235C35.5966 29.0106 33.0984 29.4461 30.6251 29.1805C28.1518 28.9148 25.8032 27.9586 23.8477 26.4212C25.426 25.1807 26.7021 23.598 27.5795 21.7925C28.457 19.9869 28.9129 18.0056 28.9129 15.9981C28.9129 13.9907 28.457 12.0094 27.5795 10.2038C26.7021 8.39828 25.426 6.81557 23.8477 5.57513C25.8032 4.0377 28.1518 3.0815 30.6251 2.81582C33.0984 2.55015 35.5966 2.98572 37.834 4.07275C40.0715 5.15979 41.9579 6.85442 43.2778 8.96293C44.5976 11.0715 45.2975 13.5088 45.2976 15.9963V16Z" fill="#F79E1B"/>
</svg>
