<svg width="50" height="32" viewBox="0 0 50 32" fill="none" xmlns="http://www.w3.org/2000/svg">
<g clip-path="url(#clip0)">
<path d="M50 32H0V-7.37508e-07H50V32Z" fill="white"/>
<path d="M0.839355 26.81H49.1394V31.1775H0.839355V26.81Z" fill="#F7B600"/>
<path d="M0.839355 5.20703H49.1394V0.839577H0.839355V5.20703Z" fill="#1A1F71"/>
<path d="M24.7763 10.019L22.2085 22.0236H19.1028L21.6707 10.019H24.7763ZM37.8422 17.7707L39.4772 13.2624L40.4177 17.7707H37.8422ZM41.3089 22.0236H44.1806L41.6717 10.019H39.0225C38.4255 10.019 37.9225 10.3652 37.6997 10.899L33.0394 22.0236H36.301L36.9487 20.2309H40.9326L41.3089 22.0236ZM33.2011 18.1044C33.2149 14.9363 28.8217 14.7607 28.8509 13.3452C28.8605 12.915 29.2706 12.4568 30.1677 12.3397C30.6126 12.2823 31.8395 12.2361 33.2307 12.877L33.7748 10.3302C33.0275 10.06 32.0661 9.79968 30.8699 9.79968C27.7996 9.79968 25.6397 11.4305 25.6224 13.7677C25.6028 15.496 27.1653 16.4596 28.34 17.0351C29.5513 17.6235 29.9572 18.001 29.9514 18.5267C29.943 19.332 28.9853 19.6885 28.0941 19.702C26.5314 19.7263 25.6262 19.2798 24.9043 18.9433L24.3407 21.575C25.0674 21.9077 26.4066 22.1972 27.7933 22.2122C31.0573 22.2122 33.1915 20.6003 33.2011 18.1044ZM20.3386 10.019L15.3064 22.0236H12.0238L9.54732 12.443C9.3973 11.8539 9.26642 11.6374 8.80985 11.3885C8.06304 10.9828 6.83003 10.6034 5.74609 10.3673L5.81935 10.019H11.1042C11.7772 10.019 12.3829 10.4669 12.5369 11.2422L13.845 18.1895L17.0758 10.019H20.3386Z" fill="#1A1F71"/>
</g>
<defs>
<clipPath id="clip0">
<path d="M0 0H50V32H0V0Z" fill="white"/>
</clipPath>
</defs>
</svg>
