<svg width="32" height="32" viewBox="0 0 32 32" fill="none" xmlns="http://www.w3.org/2000/svg">
<g clip-path="url(#clip0)">
<path fill-rule="evenodd" clip-rule="evenodd" d="M0 32.0002H32.0002V0H0V32.0002Z" fill="#016FD0"/>
<path d="M17.4634 5.29321H12.5441L7.4917 16.7593H11.5924V26.9366L24.2455 26.9634L26.2327 24.7465L28.2341 26.9551H32.0002V23.7206L29.6414 21.1768L32.0002 18.6561L32.0001 5.29321H27.3626L26.3118 8.23259L25.2645 5.29321H19.1913V9.21659L17.4634 5.29321Z" fill="#FFFFFE"/>
<path fill-rule="evenodd" clip-rule="evenodd" d="M12.9551 25.6794V16.7322H20.5416V18.7933H15.4114V20.1924H20.4193V22.2193H15.4114V23.5935H20.5416V25.6794H12.9551Z" fill="#016FD0"/>
<path fill-rule="evenodd" clip-rule="evenodd" d="M20.5036 25.6794L24.7015 21.2007L20.5034 16.7324H23.7527L26.3178 19.5682L28.8903 16.7324H31.9998V16.8028L27.8913 21.2007L31.9998 25.5525V25.6794H28.859L26.2483 22.8153L23.6645 25.6794H20.5036Z" fill="#016FD0"/>
<path fill-rule="evenodd" clip-rule="evenodd" d="M13.4753 6.53882L9.50537 15.4786H12.2282L12.9772 13.6883H17.0355L17.784 15.4786H20.5745L16.6211 6.53882H13.4753ZM13.8165 11.6821L15.0071 8.83624L16.1968 11.6821H13.8165Z" fill="#016FD0"/>
<path fill-rule="evenodd" clip-rule="evenodd" d="M20.5376 15.4769V6.53735L24.365 6.55051L26.3344 12.0463L28.3166 6.53735H32.0002V15.4769L29.6299 15.4979V9.35727L27.3924 15.4769H25.2288L22.9449 9.33629V15.4769H20.5376Z" fill="#016FD0"/>
</g>
<defs>
<clipPath id="clip0">
<path d="M0 0H32V32H0V0Z" fill="white"/>
</clipPath>
</defs>
</svg>
